<svg xmlns="http://www.w3.org/2000/svg" xmlns:xlink="http://www.w3.org/1999/xlink" version="1.1" x="0px" y="0px" viewBox="0 0 100 80.4125" enable-background="new 0 0 100 64.33" xml:space="preserve"><path d="M32.058,46.482c-7.895,0-14.317-6.423-14.317-14.317s6.423-14.317,14.317-14.317s14.317,6.423,14.317,14.317  S39.952,46.482,32.058,46.482z M32.058,20.602c-6.376,0-11.562,5.187-11.562,11.563s5.187,11.563,11.562,11.563  s11.563-5.187,11.563-11.563S38.434,20.602,32.058,20.602z"/><circle cx="26.812" cy="32.165" r="2.107"/><circle cx="37.304" cy="32.165" r="2.107"/><path d="M67.942,46.482c-7.895,0-14.317-6.423-14.317-14.317s6.423-14.317,14.317-14.317S82.26,24.271,82.26,32.165  S75.837,46.482,67.942,46.482z M67.942,20.602c-6.376,0-11.563,5.187-11.563,11.563s5.188,11.563,11.563,11.563  s11.563-5.187,11.563-11.563S74.318,20.602,67.942,20.602z"/><circle cx="62.696" cy="32.165" r="2.107"/><circle cx="73.188" cy="32.165" r="2.107"/><path d="M89.451,59.331H10.549C7.489,59.331,5,56.842,5,53.782V10.548c0-3.06,2.489-5.549,5.549-5.549h78.902  c3.06,0,5.549,2.489,5.549,5.549v43.234C95,56.842,92.511,59.331,89.451,59.331z M10.549,7.45c-1.708,0-3.098,1.39-3.098,3.098  v43.234c0,1.708,1.39,3.098,3.098,3.098h78.902c1.708,0,3.098-1.39,3.098-3.098V10.548c0-1.708-1.39-3.098-3.098-3.098H10.549z"/><text x="0" y="79.33" fill="#000000" font-size="5px" font-weight="bold" font-family="'Helvetica Neue', Helvetica, Arial-Unicode, Arial, Sans-serif">Created by jon trillana</text><text x="0" y="84.33" fill="#000000" font-size="5px" font-weight="bold" font-family="'Helvetica Neue', Helvetica, Arial-Unicode, Arial, Sans-serif">from the Noun Project</text></svg>