<svg xmlns="http://www.w3.org/2000/svg" xmlns:xlink="http://www.w3.org/1999/xlink" version="1.2" baseProfile="tiny" x="0px" y="0px" viewBox="0 0 100 125" xml:space="preserve"><path d="M30,43.75c-3.446,0-6.25,2.804-6.25,6.25s2.804,6.25,6.25,6.25s6.25-2.804,6.25-6.25S33.446,43.75,30,43.75z"/><path d="M70,43.75c-3.446,0-6.25,2.804-6.25,6.25s2.804,6.25,6.25,6.25s6.25-2.804,6.25-6.25S73.446,43.75,70,43.75z"/><path d="M90,37.5v-8.108C82.523,14.909,67.423,5,50,5s-32.523,9.909-40,24.392V37.5H6.773C5.627,41.47,5,45.661,5,50  s0.627,8.53,1.773,12.5H10v8.108C17.477,85.091,32.577,95,50,95s32.523-9.909,40-24.392V62.5h3.227C94.373,58.53,95,54.339,95,50  s-0.627-8.53-1.773-12.5H90z M47.5,12.583c0.828-0.055,1.662-0.083,2.5-0.083s1.672,0.028,2.5,0.083v3.667  c0,0.689-0.561,1.25-1.25,1.25h-2.5c-0.689,0-1.25-0.561-1.25-1.25V12.583z M52.5,87.417C51.672,87.472,50.838,87.5,50,87.5  s-1.672-0.028-2.5-0.083V83.75c0-0.689,0.561-1.25,1.25-1.25h2.5c0.689,0,1.25,0.561,1.25,1.25V87.417z M87.164,55H82.5v13.699  C76.639,78.885,66.492,85.64,55,87.169V83.75c0-2.068-1.683-3.75-3.75-3.75h-2.5C46.683,80,45,81.682,45,83.75v3.419  c-11.492-1.53-21.639-8.285-27.5-18.47V55h-4.664c-0.224-1.657-0.336-3.328-0.336-5c0-1.673,0.113-3.343,0.336-5H17.5V31.301  c5.861-10.185,16.008-16.94,27.5-18.47v3.419c0,2.068,1.683,3.75,3.75,3.75h2.5c2.067,0,3.75-1.682,3.75-3.75v-3.419  c11.492,1.53,21.639,8.285,27.5,18.47V45h4.664c0.224,1.657,0.336,3.327,0.336,5C87.5,51.672,87.387,53.343,87.164,55z"/><text x="0" y="115" fill="#000000" font-size="5px" font-weight="bold" font-family="'Helvetica Neue', Helvetica, Arial-Unicode, Arial, Sans-serif">Created by Arthur Shlain</text><text x="0" y="120" fill="#000000" font-size="5px" font-weight="bold" font-family="'Helvetica Neue', Helvetica, Arial-Unicode, Arial, Sans-serif">from the Noun Project</text></svg>