<svg xmlns="http://www.w3.org/2000/svg" xmlns:xlink="http://www.w3.org/1999/xlink" version="1.1" x="0px" y="0px" viewBox="0 0 100 125" enable-background="new 0 0 100 100" xml:space="preserve"><path d="M92.5,15h-85C6.1,15,5,16.1,5,17.5v60C5,78.9,6.1,80,7.5,80h5v5c0,1.4,1.1,2.5,2.5,2.5h10c1.4,0,2.5-1.1,2.5-2.5v-5h45v5  c0,1.4,1.1,2.5,2.5,2.5h10c1.4,0,2.5-1.1,2.5-2.5v-5h5c1.4,0,2.5-1.1,2.5-2.5v-60C95,16.1,93.9,15,92.5,15z M22.5,82.5h-5V80h5V82.5  z M63.8,75H25H15h-5V20h53.8V75z M82.5,82.5h-5V80h5V82.5z M90,75h-5H75h-8.8V20H90V75z"/><path d="M16.9,59.4C16.9,59.4,17,59.4,16.9,59.4C19.1,63,22,66,25.6,68c0,0,0,0,0,0c0,0,0.1,0,0.1,0c3.5,2,7.5,3.1,11.8,3.1  s8.3-1.1,11.8-3.1c0,0,0.1,0,0.1,0c0,0,0,0,0,0c3.6-2.1,6.5-5,8.6-8.6c0,0,0,0,0.1-0.1c0,0,0,0,0-0.1c2-3.5,3.2-7.5,3.2-11.8  s-1.2-8.3-3.2-11.8c0,0,0,0,0-0.1c0,0,0,0,0,0C56,32,53,29,49.4,27c0,0,0,0,0,0c0,0,0,0-0.1,0c-3.5-2-7.5-3.2-11.8-3.2  s-8.3,1.2-11.8,3.2c0,0,0,0-0.1,0c0,0,0,0,0,0C22,29,19,32,17,35.6c0,0,0,0,0,0c0,0,0,0,0,0.1c-2,3.5-3.2,7.5-3.2,11.8  S14.9,55.8,16.9,59.4C16.9,59.3,16.9,59.4,16.9,59.4z M19.8,59.2l4.3-2.5c1.1,1.7,2.6,3.1,4.2,4.2l-2.5,4.3  C23.4,63.6,21.4,61.6,19.8,59.2z M33.4,42.8c-0.2,0.2-0.4,0.3-0.5,0.5l-6.6-3.8c0.9-1.3,2-2.4,3.3-3.3L33.4,42.8z M31.7,35  c1.4-0.6,2.9-1.1,4.5-1.2v7.6c-0.2,0.1-0.5,0.1-0.7,0.2L31.7,35z M33.4,52.2l-3.8,6.6c-1.3-0.9-2.4-2-3.3-3.3l6.6-3.8  C33,51.8,33.2,52,33.4,52.2z M31.6,45.5c-0.1,0.2-0.1,0.5-0.2,0.7h-7.6c0.1-1.6,0.6-3.1,1.2-4.5L31.6,45.5z M31.4,48.8  c0.1,0.2,0.1,0.5,0.2,0.7L25,53.3c-0.6-1.4-1.1-2.9-1.2-4.5H31.4z M36.3,68.7c-3-0.2-5.7-0.9-8.3-2.2l2.5-4.3  c1.8,0.9,3.7,1.4,5.8,1.5V68.7z M36.3,61.2c-1.6-0.1-3.1-0.6-4.5-1.2l3.8-6.5c0.2,0.1,0.5,0.1,0.7,0.2V61.2z M38.8,68.7v-5  c2.1-0.2,4-0.7,5.8-1.5l2.5,4.3C44.5,67.7,41.7,68.5,38.8,68.7z M43.6,46.3c-0.1-0.2-0.1-0.5-0.2-0.7l6.5-3.8  c0.6,1.4,1.1,2.9,1.2,4.5H43.6z M51.2,48.8c-0.1,1.6-0.6,3.1-1.2,4.5l-6.5-3.8c0.1-0.2,0.1-0.5,0.2-0.7H51.2z M42.2,43.4  c-0.2-0.2-0.3-0.4-0.5-0.5l3.8-6.6c1.3,0.9,2.4,2,3.3,3.3L42.2,43.4z M42.2,51.6l6.6,3.8c-0.9,1.3-2,2.4-3.3,3.3l-3.8-6.6  C41.8,52,42,51.8,42.2,51.6z M43.3,60c-1.4,0.6-2.9,1.1-4.5,1.2v-7.6c0.2-0.1,0.5-0.1,0.7-0.2L43.3,60z M49.2,65.2l-2.5-4.3  c1.7-1.1,3.1-2.6,4.2-4.2l4.3,2.5C53.6,61.6,51.6,63.6,49.2,65.2z M56.5,57l-4.3-2.5c0.9-1.8,1.4-3.7,1.5-5.8h5  C58.5,51.7,57.7,54.5,56.5,57z M58.7,46.3h-5c-0.2-2.1-0.7-4-1.5-5.8l4.3-2.5C57.7,40.5,58.5,43.3,58.7,46.3z M55.2,35.8l-4.3,2.5  c-1.1-1.7-2.6-3.1-4.2-4.2l2.5-4.3C51.6,31.4,53.6,33.4,55.2,35.8z M38.8,26.3c3,0.2,5.7,0.9,8.3,2.2l-2.5,4.3  c-1.8-0.9-3.7-1.4-5.8-1.5V26.3z M38.8,33.8c1.6,0.1,3.1,0.6,4.5,1.2l-3.8,6.5c-0.2-0.1-0.5-0.1-0.7-0.2V33.8z M41.3,47.5  c0,2.1-1.7,3.8-3.8,3.8s-3.8-1.7-3.8-3.8s1.7-3.8,3.8-3.8S41.3,45.4,41.3,47.5z M36.3,26.3v5c-2.1,0.2-4,0.7-5.8,1.5L28,28.5  C30.5,27.3,33.3,26.5,36.3,26.3z M25.8,29.8l2.5,4.3c-1.7,1.1-3.1,2.6-4.2,4.2l-4.3-2.5C21.4,33.4,23.4,31.4,25.8,29.8z M18.5,38  l4.3,2.5c-0.9,1.8-1.4,3.7-1.5,5.8h-5C16.5,43.3,17.3,40.5,18.5,38z M21.3,48.8c0.2,2.1,0.7,4,1.5,5.8L18.5,57  c-1.3-2.5-2-5.3-2.2-8.3H21.3z"/><path d="M70,28.8h15c0.7,0,1.3-0.6,1.3-1.3s-0.6-1.3-1.3-1.3H70c-0.7,0-1.3,0.6-1.3,1.3S69.3,28.8,70,28.8z"/><path d="M70,33.8h15c0.7,0,1.3-0.6,1.3-1.3s-0.6-1.3-1.3-1.3H70c-0.7,0-1.3,0.6-1.3,1.3S69.3,33.8,70,33.8z"/><path d="M70,38.8h15c0.7,0,1.3-0.6,1.3-1.3s-0.6-1.3-1.3-1.3H70c-0.7,0-1.3,0.6-1.3,1.3S69.3,38.8,70,38.8z"/><text x="0" y="115" fill="#000000" font-size="5px" font-weight="bold" font-family="'Helvetica Neue', Helvetica, Arial-Unicode, Arial, Sans-serif">Created by Arthur Shlain</text><text x="0" y="120" fill="#000000" font-size="5px" font-weight="bold" font-family="'Helvetica Neue', Helvetica, Arial-Unicode, Arial, Sans-serif">from the Noun Project</text></svg>