<svg xmlns="http://www.w3.org/2000/svg" xmlns:xlink="http://www.w3.org/1999/xlink" version="1.1" x="0px" y="0px" viewBox="0 0 100 125" enable-background="new 0 0 100 100" xml:space="preserve"><g><g><path d="M49.577,10.576c0.385,1.551,1.013,1.551,1.398,0l1.37-5.529c0.385-1.551-0.547-2.821-2.069-2.821    c-1.522,0-2.454,1.27-2.069,2.821L49.577,10.576z"/></g><g><path d="M72.812,20.149l4.878-2.94c1.367-0.826,1.607-2.382,0.531-3.459s-2.634-0.838-3.459,0.532l-2.939,4.877    C70.998,20.529,71.441,20.974,72.812,20.149z"/></g><g><path d="M19.193,41.082l-5.527-1.37c-1.553-0.383-2.822,0.547-2.824,2.068c0.001,1.523,1.271,2.457,2.823,2.07l5.527-1.371    C20.745,42.094,20.746,41.468,19.193,41.082z"/></g><g><path d="M22.899,17.296l4.878,2.938c1.37,0.826,1.814,0.383,0.989-0.988l-2.94-4.878c-0.827-1.368-2.382-1.608-3.458-0.534    C21.292,14.912,21.53,16.471,22.899,17.296z"/></g><g><path d="M87.01,39.589l-5.527,1.371c-1.551,0.385-1.553,1.013,0,1.398l5.527,1.37c1.551,0.382,2.822-0.547,2.822-2.069    S88.562,39.204,87.01,39.589z"/></g><g><path d="M77.776,66.145l-4.878-2.938c-1.369-0.826-1.814-0.383-0.989,0.987l2.94,4.878c0.826,1.367,2.382,1.607,3.459,0.533    C79.385,68.529,79.146,66.97,77.776,66.145z"/></g><g><path d="M27.864,63.291l-4.878,2.939c-1.368,0.827-1.608,2.383-0.533,3.46c1.077,1.077,2.636,0.839,3.46-0.532l2.938-4.877    C29.678,62.911,29.234,62.467,27.864,63.291z"/></g><g><path d="M40.52,88.72c0,0.003,0.002,0.007,0.002,0.009v1.443l19.513-1.588c0.003-1.01,0.04-2.004,0.101-2.992l-19.643,1.598    C40.507,87.697,40.52,88.205,40.52,88.72z"/></g><g><path d="M50.276,17.565c-13.327,0-24.169,10.842-24.169,24.168c0,7.111,3.305,13.132,6.804,19.509    c2.362,4.305,4.805,8.756,6.064,13.509c0.164,0.618,0.319,1.243,0.467,1.872c0.258,1.103,1.241,1.869,2.356,1.869    c0.066,0,0.132-0.002,0.198-0.008l17.297-1.406c1.03-0.084,1.894-0.812,2.15-1.813l0.134-0.515    c1.259-4.752,3.702-9.203,6.065-13.512c3.498-6.375,6.802-12.396,6.802-19.505C74.444,28.407,63.603,17.565,50.276,17.565z     M64.245,59.375c-2.399,4.373-4.878,8.89-6.288,13.924l-15.04,1.223c-0.064-0.255-0.13-0.51-0.197-0.764    c-1.381-5.211-3.939-9.873-6.414-14.382c-3.394-6.185-6.325-11.526-6.325-17.643c0-11.189,9.104-20.293,20.294-20.293    c11.19,0,20.293,9.104,20.293,20.293C70.569,47.851,67.639,53.191,64.245,59.375z"/></g><g><path d="M46.042,95.973c2.329,1.672,6.14,1.671,8.47,0l5.277-3.787c0.166-0.118,0.256-0.311,0.243-0.498v-0.187l-18.165,1.477    L46.042,95.973z"/></g><g><path d="M40.321,84.287l20.076-1.633c0.119-1.01,0.262-2.016,0.438-3.02L39.988,81.33C40.128,82.311,40.234,83.296,40.321,84.287z    "/></g></g><text x="0" y="115" fill="#000000" font-size="5px" font-weight="bold" font-family="'Helvetica Neue', Helvetica, Arial-Unicode, Arial, Sans-serif">Created by JEREMIE SOMMET</text><text x="0" y="120" fill="#000000" font-size="5px" font-weight="bold" font-family="'Helvetica Neue', Helvetica, Arial-Unicode, Arial, Sans-serif">from the Noun Project</text></svg>