<svg xmlns="http://www.w3.org/2000/svg" xmlns:xlink="http://www.w3.org/1999/xlink" version="1.1" x="0px" y="0px" viewBox="0 0 100 125" enable-background="new 0 0 100 100" xml:space="preserve"><g display="none"><path display="inline" d="M94.52,7.213c-3.867-3.869-8.576,0.838-8.576,0.838S62.406,31.594,57.699,36.304   c-4.707,4.709-18.14,10.112-18.14,10.112l15.458,15.458c0,0,5.697-13.125,10.412-17.843c4.699-4.704,28.239-28.246,28.239-28.246   S98.383,11.077,94.52,7.213z"/><path display="inline" d="M21.956,61.873C14.809,78.971,15.98,88.717,3.958,91.682C50.312,99.732,50.312,66.58,50.312,66.58   l-15.46-15.465C34.852,51.115,25.467,53.479,21.956,61.873z M17.492,86.547c3.537-4.099,9.075-23.742,16.196-28.673   C38.714,61.227,33.501,76.864,17.492,86.547z"/></g><g><rect x="21.965" y="90.816" width="2.396" height="1.597"/><rect x="21.965" y="76.5" width="2.396" height="12.72"/><rect x="21.965" y="94.01" width="2.396" height="1.628"/><rect x="73.589" y="90.816" width="2.396" height="1.597"/><rect x="73.589" y="76.5" width="2.396" height="12.72"/><rect x="73.589" y="94.01" width="2.396" height="1.628"/><rect x="79.589" y="90.816" width="2.396" height="1.597"/><rect x="79.589" y="76.5" width="2.396" height="12.72"/><rect x="79.589" y="94.01" width="2.396" height="1.628"/><path d="M88,15.5H12c-3.86,0-7,3.14-7,7v40c0,3.859,3.14,7,7,7h76c3.859,0,7-3.141,7-7v-40C95,18.64,91.859,15.5,88,15.5z    M49.507,19.484c0.391-0.006,0.784-0.004,1.178,0.007c2.213,0.057,3.947,1.903,3.886,4.111c-0.063,2.208-1.903,3.948-4.112,3.885   c-0.274-0.008-0.548-0.009-0.821-0.005c-0.125,0.002-0.248-0.001-0.37-0.011c-2.039-0.153-3.661-1.838-3.695-3.923   C45.537,21.34,47.298,19.521,49.507,19.484z M13.499,65.976c-2.025,0-3.667-1.642-3.667-3.667c0-2.024,1.642-3.666,3.667-3.666   s3.667,1.642,3.667,3.666C17.166,64.334,15.524,65.976,13.499,65.976z M23.499,65.976c-2.025,0-3.667-1.642-3.667-3.667   c0-2.024,1.642-3.666,3.667-3.666s3.667,1.642,3.667,3.666C27.166,64.334,25.524,65.976,23.499,65.976z M27.663,40.934   c-2.036-0.857-2.992-3.203-2.135-5.239c0.153-0.363,0.314-0.722,0.482-1.077c0.947-1.997,3.333-2.846,5.328-1.9   c1.996,0.947,2.847,3.333,1.899,5.329c-0.117,0.248-0.23,0.5-0.336,0.753c-0.685,1.625-2.318,2.563-3.986,2.438   C28.495,41.206,28.073,41.107,27.663,40.934z M33.499,65.976c-2.025,0-3.667-1.642-3.667-3.667c0-2.024,1.642-3.666,3.667-3.666   s3.667,1.642,3.667,3.666C37.166,64.334,35.524,65.976,33.499,65.976z M40.285,30.209c-0.233,0.143-0.464,0.292-0.689,0.445   c-0.776,0.526-1.672,0.742-2.54,0.677c-1.176-0.088-2.302-0.694-3.015-1.747c-1.239-1.83-0.759-4.316,1.07-5.555   c0.325-0.22,0.655-0.433,0.99-0.638c1.883-1.156,4.346-0.566,5.501,1.317C42.757,26.591,42.168,29.054,40.285,30.209z    M57.924,41.17L41.826,60.324l6.429-13.807c0,0,0.526-0.915-0.714-0.915h-4.921c0,0-1.35-0.038-0.793-1.228   c0.555-1.19,5.635-12.144,5.635-12.144l6.508-1.35l-3.81,7.699c0,0-0.803,1.438,0.556,1.35h6.391l0.15,0   C57.414,39.934,59.03,39.831,57.924,41.17z M62.451,31.461c-0.686-0.052-1.367-0.281-1.975-0.702   c-0.225-0.156-0.454-0.308-0.687-0.454c-1.87-1.176-2.433-3.646-1.257-5.515c1.177-1.871,3.646-2.433,5.516-1.256   c0.334,0.209,0.662,0.426,0.984,0.65c1.816,1.258,2.268,3.75,1.01,5.566C65.205,30.959,63.82,31.563,62.451,31.461z M72.31,41.159   c-0.597,0.246-1.218,0.336-1.819,0.292c-1.461-0.11-2.807-1.02-3.402-2.467c-0.105-0.255-0.216-0.508-0.332-0.758   c-0.928-2.005-0.055-4.382,1.95-5.31c2.004-0.928,4.382-0.056,5.311,1.95c0.163,0.353,0.319,0.71,0.468,1.072   C75.326,37.979,74.352,40.317,72.31,41.159z M77.499,65.976c-2.024,0-3.667-1.642-3.667-3.667c0-2.024,1.643-3.666,3.667-3.666   s3.667,1.642,3.667,3.666C81.166,64.334,79.523,65.976,77.499,65.976z M87.499,65.976c-2.024,0-3.667-1.642-3.667-3.667   c0-2.024,1.643-3.666,3.667-3.666s3.667,1.642,3.667,3.666C91.166,64.334,89.523,65.976,87.499,65.976z"/><path d="M88,10.5H12c-6.627,0-12,5.373-12,12v40c0,6.627,5.373,12,12,12h76c6.627,0,12-5.373,12-12v-40   C100,15.873,94.627,10.5,88,10.5z M97,62.5c0,4.963-4.037,9-9,9H12c-4.962,0-9-4.037-9-9v-40c0-4.962,4.038-9,9-9h76   c4.963,0,9,4.038,9,9V62.5z"/></g><text x="0" y="115" fill="#000000" font-size="5px" font-weight="bold" font-family="'Helvetica Neue', Helvetica, Arial-Unicode, Arial, Sans-serif">Created by Maurizio Fusillo</text><text x="0" y="120" fill="#000000" font-size="5px" font-weight="bold" font-family="'Helvetica Neue', Helvetica, Arial-Unicode, Arial, Sans-serif">from the Noun Project</text></svg>