<svg xmlns="http://www.w3.org/2000/svg" xmlns:xlink="http://www.w3.org/1999/xlink" version="1.1" x="0px" y="0px" viewBox="0 0 100 125" enable-background="new 0 0 100 100" xml:space="preserve"><path fill="#000000" d="M52.615,21.55c12.7,0,23.924,7.833,27.928,19.491l0.543,1.581l1.63,0.37C88.182,44.233,92,49.005,92,54.596  c0,6.576-5.351,11.927-11.927,11.927c-0.306,0-0.669-0.05-1.089-0.109l-0.43-0.058l-1.665-0.214l-1.053,1.307  c-5.636,6.992-14.1,11.002-23.22,11.002c-8.116,0-15.685-3.145-21.312-8.857l-1.169-1.186l-1.625,0.365  c-1.247,0.28-2.489,0.421-3.693,0.421C15.544,69.193,8,61.649,8,52.377c0-6.59,3.893-12.605,9.919-15.323l1.487-0.671l0.245-1.613  c0.893-5.871,5.828-10.132,11.734-10.132c1.369,0,2.783,0.272,4.202,0.809l1.294,0.49l1.213-0.666  C42.522,22.836,47.544,21.55,52.615,21.55 M52.615,18.55c-5.809,0-11.249,1.499-15.966,4.091c-1.642-0.621-3.404-1.003-5.263-1.003  c-7.474,0-13.61,5.512-14.7,12.681C9.8,37.425,5,44.334,5,52.377c0,10.943,8.872,19.816,19.816,19.816  c1.496,0,2.949-0.18,4.35-0.494c5.908,5.997,14.219,9.751,23.449,9.751c10.391,0,19.618-4.753,25.555-12.119  c0.629,0.081,1.251,0.192,1.902,0.192C88.315,69.523,95,62.839,95,54.596c0-7.102-4.973-13.021-11.619-14.53  C79.088,27.57,66.949,18.55,52.615,18.55L52.615,18.55z"/><text x="0" y="115" fill="#000000" font-size="5px" font-weight="bold" font-family="'Helvetica Neue', Helvetica, Arial-Unicode, Arial, Sans-serif">Created by Lorena Salagre</text><text x="0" y="120" fill="#000000" font-size="5px" font-weight="bold" font-family="'Helvetica Neue', Helvetica, Arial-Unicode, Arial, Sans-serif">from the Noun Project</text></svg>