<svg xmlns="http://www.w3.org/2000/svg" data-name="Layer 1" viewBox="0 0 100 125" x="0px" y="0px"><title>Artboard 25</title><path d="M24.29,67.58a3.5,3.5,0,0,0-3.5,3.5V76a3.5,3.5,0,0,0,3.5,3.5h1v3.58a4.5,4.5,0,0,0,4.5,4.5h40.5a4.5,4.5,0,0,0,4.5-4.5V23.92a11.51,11.51,0,0,0-11.5-11.5H36.75a11.5,11.5,0,0,0-11.47,11h-1a3.5,3.5,0,0,0-3.5,3.5v4.92a3.5,3.5,0,0,0,3.5,3.5h1V45.81h-1a3.5,3.5,0,0,0-3.5,3.5v4.92a3.5,3.5,0,0,0,3.5,3.5h1v9.85Zm1,8.92h-1a.5.5,0,0,1-.5-.5V71.08a.5.5,0,0,1,.5-.5h1Zm3-52.58a8.51,8.51,0,0,1,8.5-8.5h26.5a8.51,8.51,0,0,1,8.5,8.5V38.5H65.32V29.33a1.5,1.5,0,1,0-3,0V38.5H28.25Zm0,17.58H62.32V69.62a1.5,1.5,0,1,0,3,0V41.5h6.43V83.08a1.5,1.5,0,0,1-1.5,1.5H29.75a1.5,1.5,0,0,1-1.5-1.5Zm-4-9.21a.5.5,0,0,1-.5-.5V26.88a.5.5,0,0,1,.5-.5h1v5.92Zm0,22.44a.5.5,0,0,1-.5-.5V49.31a.5.5,0,0,1,.5-.5h1v5.92Z"/><path d="M39.43,19a7.51,7.51,0,0,0-7.5,7.5,1.5,1.5,0,1,0,3,0,4.51,4.51,0,0,1,4.5-4.5,1.5,1.5,0,0,0,0-3Z"/><text x="0" y="115" fill="#000000" font-size="5px" font-weight="bold" font-family="'Helvetica Neue', Helvetica, Arial-Unicode, Arial, Sans-serif">Created by Bernar  Novalyi</text><text x="0" y="120" fill="#000000" font-size="5px" font-weight="bold" font-family="'Helvetica Neue', Helvetica, Arial-Unicode, Arial, Sans-serif">from the Noun Project</text></svg>