<svg xmlns="http://www.w3.org/2000/svg" xmlns:xlink="http://www.w3.org/1999/xlink" xmlns:sketch="http://www.bohemiancoding.com/sketch/ns" viewBox="0 0 100 125" version="1.1" x="0px" y="0px"><title>Artboard 3</title><desc>Created with Sketch.</desc><g stroke="none" stroke-width="1" fill="none" fill-rule="evenodd" sketch:type="MSPage"><g sketch:type="MSArtboardGroup" fill="#000000"><path d="M83.9828326,43.2948718 L70.4055794,43.2948718 C69.8497854,43.2948718 69.3733906,43.5333333 69.055794,43.8512821 L30.944206,43.8512821 C30.6266094,43.5333333 30.0708155,43.2948718 29.5944206,43.2948718 L16.0171674,43.2948718 C14.9055794,43.2948718 14.0321888,44.1692308 14.0321888,45.2820513 L14.0321888,56.0128205 C14.0321888,57.125641 14.9055794,58 16.0171674,58 L29.5944206,58 C30.1502146,58 30.6266094,57.7615385 30.944206,57.4435897 L69.055794,57.4435897 C69.3733906,57.7615385 69.9291845,58 70.4055794,58 L83.9828326,58 C85.0944206,58 85.9678112,57.125641 85.9678112,56.0128205 L85.9678112,45.2820513 C85.9678112,44.1692308 85.0944206,43.2948718 83.9828326,43.2948718 L83.9828326,43.2948718 Z M31.5,45.5205128 L68.4206009,45.5205128 L68.4206009,55.774359 L31.5,55.774359 L31.5,45.5205128 L31.5,45.5205128 Z" sketch:type="MSShapeGroup"/></g></g><text x="0" y="115" fill="#000000" font-size="5px" font-weight="bold" font-family="'Helvetica Neue', Helvetica, Arial-Unicode, Arial, Sans-serif">Created by Lloyd Humphreys</text><text x="0" y="120" fill="#000000" font-size="5px" font-weight="bold" font-family="'Helvetica Neue', Helvetica, Arial-Unicode, Arial, Sans-serif">from the Noun Project</text></svg>