<svg xmlns="http://www.w3.org/2000/svg" xmlns:xlink="http://www.w3.org/1999/xlink" xmlns:a="http://ns.adobe.com/AdobeSVGViewerExtensions/3.0/" version="1.1" x="0px" y="0px" viewBox="-11.449 -8 1024 1280" enable-background="new -11.449 -8 1024 1024" xml:space="preserve"><path display="none" fill="none" stroke="#000000" stroke-width="16" stroke-miterlimit="10" d="  M310.551,13v316h385V13H310.551z M388.551,282c0,6.627-5.373,12-12,12h-4c-6.627,0-12-5.373-12-12V116c0-6.627,5.373-12,12-12h4  c6.627,0,12,5.373,12,12V282z M310.551,354v622h12v15.353c0,3.87,2.815,6.647,6.686,6.647h16c3.87,0,7.314-2.777,7.314-6.647V976  h300v15.353c0,3.87,2.815,6.647,6.686,6.647h16c3.87,0,7.314-2.777,7.314-6.647V976h13V354H310.551z M388.551,699  c0,6.627-5.373,12-12,12h-4c-6.627,0-12-5.373-12-12V393c0-6.627,5.373-12,12-12h4c6.627,0,12,5.373,12,12V699z M456.079,391.247  c0,5.329-4.32,9.649-9.649,9.649s-9.649-4.32-9.649-9.649s4.32-9.649,9.649-9.649S456.079,385.918,456.079,391.247z"/><path display="none" fill="none" stroke="#000000" stroke-width="16" stroke-miterlimit="10" d="M273.551,17  v945h14v22.218c0,5.879,3.479,10.782,8.096,10.782h19.086c4.616,0,8.818-4.903,8.818-10.782V962h358v22.218  c0,5.879,3.126,10.782,7.742,10.782h19.086c4.616,0,8.172-4.903,8.172-10.782V962h16V17H273.551z M355.551,388.686  c0,7.906-6.409,14.314-14.314,14.314h-4.371c-7.906,0-14.314-6.409-14.314-14.314V83.314c0-7.906,6.409-14.314,14.314-14.314h4.371  c7.906,0,14.314,6.409,14.314,14.314V388.686z M349.952,463.655c0,6.357-5.152,11.511-11.51,11.511  c-6.356,0-11.51-5.154-11.51-11.511s5.154-11.51,11.51-11.51C344.8,452.146,349.952,457.298,349.952,463.655z"/><path display="none" fill="none" stroke="#000000" stroke-width="16" stroke-miterlimit="10" d="M45.738,350h916  c0,0,21.064,0.988,24.064,33.986c0,0,16.499,129.257-11.999,252.251c0,0-6.065,25.763-31.998,25.763H57.738  c0,0-22.888,3.972-28.888-29.026c0,0-23.998-68.689-8.999-260.68C19.851,372.294,23.626,350,45.738,350z M31.551,533h944   M895.23,661.636c17-23,16-50.636,16-50.636h-817c3,40,15,50.66,15,50.66 M587.551,559c0-2.209-1.791-4-4-4h-160  c-2.209,0-4,1.791-4,4v20c0,2.209,1.791,4,4,4h160c2.209,0,4-1.791,4-4V559z"/><path display="none" fill="none" stroke="#000000" stroke-width="16" stroke-miterlimit="10" d="M996.551,806  c0,12.15-9.85,22-22,22h-943c-12.15,0-22-9.85-22-22V205c0-12.15,9.85-22,22-22h943c12.15,0,22,9.85,22,22V806z M951.551,668  c0-9.941-8.059-18-18-18h-201c-9.941,0-18,8.059-18,18v87c0,9.941,8.059,18,18,18h201c9.941,0,18-8.059,18-18V668z M660.551,246  c0-9.941-8.059-18-18-18h-566c-9.941,0-18,8.059-18,18v510c0,9.941,8.059,18,18,18h566c9.941,0,18-8.059,18-18V246z   M951.551,245.511c0-9.671-8.059-17.511-18-17.511h-201c-9.941,0-18,7.84-18,17.511v322.979c0,9.671,8.059,17.511,18,17.511h201  c9.941,0,18-7.84,18-17.511V245.511z M753.551,504h158 M753.551,404h158 M753.551,305h158 M869.551,693h-116v36h116V693z   M420.801,525.805c102,62,106,46,106,46c57-6,11-115,11-115c-34-71-133,17-133,17L420.801,525.805z M313.338,528.979  c0,0-99,88-133,17c0,0-46-109,11-115c0,0,4-16,106,46L313.338,528.979z M383.482,439.66c62-102,46-106,46-106c-6-57-115-11-115-11  c-71,34,17,133,17,133L383.482,439.66z M386.656,547.123c0,0,88,99,17,133c0,0-109,46-115-11c0,0-16-4,46-106L386.656,547.123z   M359.396,477.391c-13.255,0-24,10.746-24,24.001s10.745,24,24,24s24-10.745,24-24S372.651,477.391,359.396,477.391z"/><path display="none" fill="none" stroke="#000000" stroke-width="16" stroke-miterlimit="10" d="M847.551,750  h-690V39.353C157.551,21.679,172.563,8,190.236,8h626c17.673,0,31.314,13.679,31.314,31.353V750z M846.236,750h-62  c0,0-5.98,52.471-110,55.676c-104,12-247.82,7.668-350,2.162c-94-8-104-57.838-104-57.838h-62l26,221c0,17.673,14.327,32,32,32h568  c17.673,0,32-14.327,32-32L846.236,750z M501.582,163.744c-149.669,0-271,121.331-271,271c0,149.669,121.331,271,271,271  s271-121.331,271-271C772.582,285.075,651.251,163.744,501.582,163.744z M408.486,31.353c-17.673,0-32,6.716-32,15s14.327,15,32,15  s32-6.716,32-15S426.16,31.353,408.486,31.353z M534.486,46.353c0,8.284-14.326,15-32,15c-17.673,0-32-6.716-32-15s14.327-15,32-15  C520.16,31.353,534.486,38.068,534.486,46.353z M628.486,46.353c0,8.284-14.326,15-32,15s-32-6.716-32-15s14.326-15,32-15  S628.486,38.068,628.486,46.353z M562.986,459.157c102,62,106,46,106,46c57-6,11-115,11-115c-34-71-133,17-133,17L562.986,459.157z   M455.523,462.331c0,0-99,88-133,17c0,0-46-109,11-115c0,0,4-16,106,46L455.523,462.331z M525.668,373.012c62-102,46-106,46-106  c-6-57-115-11-115-11c-71,34,17,133,17,133L525.668,373.012z M528.842,480.475c0,0,88,99,17,133c0,0-109,46-115-11c0,0-16-4,46-106  L528.842,480.475z M501.582,410.744c-13.255,0-24,10.746-24,24s10.745,24,24,24s24-10.745,24-24S514.837,410.744,501.582,410.744z   M513.551,853.41c0-6.302-5.109-11.41-11.411-11.41h-0.178c-6.302,0-11.411,5.108-11.411,11.41v94.18  c0,6.302,5.109,11.41,11.411,11.41h0.178c6.302,0,11.411-5.108,11.411-11.41V853.41z"/><path display="none" fill="none" stroke="#000000" stroke-width="16" stroke-miterlimit="10" d="  M652.551,698h-300V68.853c0-26.51,22.961-46.853,49.471-46.853h204c26.51,0,46.528,20.343,46.528,46.853V698z M652.022,698h-298  l11,211c0,12.15,10.85,23,23,23h232c12.15,0,21-10.85,21-23L652.022,698z M408.551,953.918c0-7.687-6.231-13.918-13.917-13.918  h-0.165c-7.687,0-13.917,6.231-13.917,13.918v22.164c0,7.687,6.231,13.918,13.917,13.918h0.165c7.687,0,13.917-6.231,13.917-13.918  V953.918z M624.551,976.082c0,7.687-6.231,13.918-13.918,13.918h-0.164c-7.687,0-13.918-6.231-13.918-13.918v-22.164  c0-7.687,6.231-13.918,13.918-13.918h0.164c7.687,0,13.918,6.231,13.918,13.918V976.082z M617.551,70h-230v374h230V70z   M503.021,480.853c-23.195,0-42,5.149-42,11.5s18.804,11.5,42,11.5c23.196,0,42.001-5.149,42.001-11.5  S526.218,480.853,503.021,480.853z M517.551,755.5c0-8.008-6.492-14.5-14.5-14.5l0,0c-8.008,0-14.5,6.492-14.5,14.5v140  c0,8.008,6.492,14.5,14.5,14.5l0,0c8.008,0,14.5-6.492,14.5-14.5V755.5z M428.551,95v322 M478.551,95v322 M577.551,95v322   M527.551,96v322"/><path display="none" fill="none" stroke="#000000" stroke-width="16" stroke-miterlimit="10" d="M981.736,732.853  h-958v-466h958V732.853z M125.111,732.853h-24.75v12h24.75V732.853z M898.33,732.853h-24.188v12h24.188V732.853z M96.527,320.807  c0,0-37.058,212.483,12.521,346.044h634.416c0,0,50.591-196.294,0-346.044H96.527z M940.15,318.853h-118v58h118V318.853z   M881.15,491.853c-14.773,0-26.75,11.977-26.75,26.75s11.977,26.75,26.75,26.75s26.75-11.977,26.75-26.75  S895.924,491.853,881.15,491.853z M815.065,414.852h132 M815.065,453.852h132 M815.065,585.852h132 M815.065,625.852h132   M815.065,665.852h132"/><path display="none" fill="none" stroke="#000000" stroke-width="16" stroke-miterlimit="10" d="M997.473,770.764H8  V169.01h989.473V770.764z M532.561,770.764h-59.649v49.123h59.649V770.764z M472.912,802.343H314.14l-25,40.352h427.193l-25-40.352  H532.561 M957.473,209.01H48v521.753h909.473V209.01z"/><path display="none" fill="none" stroke="#000000" stroke-width="16" stroke-miterlimit="10" d="  M847.736,976.853h-690v-942h690V976.853z M817.813,64.35H189.736v111.107h628.076V64.35z M740.786,93.841  c-14.396,0-26.063,11.668-26.063,26.062c0,14.394,11.668,26.063,26.063,26.063c14.392,0,26.062-11.668,26.062-26.063  C766.848,105.51,755.178,93.841,740.786,93.841z M511.227,252.703c-150.766,0-272.986,112.483-272.986,251.238  s122.22,251.237,272.986,251.237c150.767,0,272.986-112.482,272.986-251.237S661.993,252.703,511.227,252.703z M511.227,314.821  c-113.489,0-205.49,84.671-205.49,189.119c0,104.447,92.001,189.118,205.49,189.118c113.49,0,205.49-84.671,205.49-189.118  C716.717,399.493,624.717,314.821,511.227,314.821z M632.796,93.841c-14.396,0-26.063,11.669-26.063,26.063  c0,14.395,11.668,26.063,26.063,26.063c14.392,0,26.062-11.668,26.062-26.063C658.857,105.51,647.188,93.841,632.796,93.841z   M716.717,503.94c-76.868-71.271-115.151-27.739-142.153-14.178s-60.006,58.445-147.015,14.178s-121.812,29.267-121.812,29.267   M157.736,840.382h690"/><path display="none" fill="none" stroke="#000000" stroke-width="16" stroke-miterlimit="10" d="M990.551,823  c0,12.15-9.85,22-22,22h-403c-12.15,0-22-9.85-22-22V188c0-12.15,9.85-22,22-22h403c12.15,0,22,9.85,22,22V823z M766.943,397.001  c-88.65,0-160.516,71.866-160.516,160.515c0,88.652,71.865,160.518,160.516,160.518c88.651,0,160.517-71.865,160.517-160.518  C927.46,468.867,855.595,397.001,766.943,397.001z M766.944,503.512c-29.827,0-54.006,24.178-54.006,54.006  c0,29.826,24.179,54.004,54.006,54.004c29.826,0,54.005-24.178,54.005-54.004C820.949,527.69,796.771,503.512,766.944,503.512z   M766.944,219.144c-36.455,0-66.007,29.552-66.007,66.007s29.552,66.007,66.007,66.007s66.007-29.552,66.007-66.007  S803.399,219.144,766.944,219.144z M606.551,778h321 M461.551,823c0,12.15-9.85,22-22,22h-403c-12.15,0-22-9.85-22-22V188  c0-12.15,9.85-22,22-22h403c12.15,0,22,9.85,22,22V823z M237.943,397.001c-88.65,0-160.516,71.866-160.516,160.516  c0,88.652,71.865,160.518,160.516,160.518c88.651,0,160.517-71.865,160.517-160.518C398.46,468.867,326.595,397.001,237.943,397.001  z M237.944,503.513c-29.827,0-54.006,24.178-54.006,54.006c0,29.826,24.179,54.004,54.006,54.004  c29.826,0,54.005-24.178,54.005-54.004C291.949,527.69,267.771,503.513,237.944,503.513z M237.944,219.144  c-36.455,0-66.007,29.553-66.007,66.007s29.552,66.007,66.007,66.007s66.007-29.553,66.007-66.007S274.399,219.144,237.944,219.144z   M77.551,778h321"/><path display="none" fill="none" stroke="#000000" stroke-width="16" stroke-miterlimit="10" d="M828.581,384.087  c0,168.7-128.2,307.45-292.48,324.161c-10.97,1.119-22.11,1.689-33.37,1.689c-11.35,0-22.569-0.58-33.629-1.711  c-164.16-16.83-292.21-155.529-292.21-324.139c0-179.96,145.88-325.85,325.839-325.85  C682.69,58.237,828.581,204.127,828.581,384.087z M747.657,395.333c-23.492,116.489-84.063,90.778-96.713,80.859  c-12.641-9.92-28.372-35.834-38.388-45.613c-8.059-7.874-19.532-15.915-25.791-18.188c2.599-8.314,4.002-17.163,4.002-26.335  c0-44.805-33.48-81.771-76.784-87.258c12.781-12.342,132.66-124.732,204.695-73.414  C718.679,225.383,771.156,278.835,747.657,395.333z M569.831,443.018c-16.133,18.971-40.178,31.006-67.031,31.006  c-26.248,0-49.817-11.5-65.925-29.741c-1.616,4.09-17.672,11.93-30.936,15.529c-13.501,3.678-43.813,4.099-58.78,9.963  c-14.959,5.873-67.84,45.042,20.655,124.362c88.496,79.314,161.18,61.195,161.18,61.195  C607.975,620.061,575.195,465.929,569.831,443.018z M499.078,199.337c1.326-16.021-10.542-80.752-120.738-36.247  c-110.195,44.507-125.944,117.737-125.944,117.737c-2.896,80.085,128.042,118.992,165.561,128.481  c-2.036-7.4-3.116-15.204-3.116-23.254c0-40.565,27.451-74.713,64.794-84.879c2.326-5.785,3.502-9.446,2.984-9.902  c-3.125-2.748-3.133-21.033-0.482-34.78C484.778,242.747,497.761,215.358,499.078,199.337z M513.983,298.797  c-3.66-0.474-7.399-0.711-11.184-0.711c-8.023,0-15.792,1.071-23.166,3.09c-37.343,10.166-64.794,44.314-64.794,84.879  c0,8.05,1.08,15.854,3.116,23.254c3.582,13.141,10.148,25.054,18.918,34.974c16.108,18.241,39.678,29.741,65.925,29.741  c26.854,0,50.898-12.035,67.031-31.006c7.55-8.866,13.361-19.251,16.935-30.627c2.599-8.314,4.002-17.163,4.002-26.335  C590.768,341.25,557.287,304.284,513.983,298.797z M503.181,709.938c-11.35,0-22.63-0.58-33.63-1.711V873h67V708.248  C525.551,709.367,514.44,709.938,503.181,709.938z M642.737,930.983c0,12.15-9.85,22.017-22,22.017h-236  c-12.149,0-22-9.866-22-22.017l20-73.366c0-12.15,9.851-21.617,22-21.617h64.813v37h67v-37h64.187c12.15,0,22,9.467,22,21.617  L642.737,930.983z M428.551,908h150"/><path display="none" fill="none" stroke="#000000" stroke-width="16" stroke-miterlimit="10" d="M53.686,687  c0,0,169-252.616,281-324.616s282-98.308,462-82.308l134,358.462c0,0-110-11.538-128,48.462H53.686z M802.551,723  c0-6.075-9.85-11-22-11h-727c-12.15,0-22,4.925-22,11v4c0,6.075,9.85,11,22,11h727c12.15,0,22-4.925,22-11V723z M570.551,513  h-89.995c-9.32,0-17.005-7.781-17.005-17.102v-0.26c0-9.32,7.685-16.638,17.005-16.638h126.259c9.32,0,16.735,7.318,16.735,16.638  v0.26c0,3.22-0.855,6.346-2.415,8.906 M698.686,474.768c0,0,62-59-22-94s-259.5,28-259.5,28s-54.5,21-49.5,66  c5,45,49.5,43.291,49.5,43.291C650.385,524.385,698.686,474.768,698.686,474.768z M864.153,305.791  c-8.509-22.639-27.87-36.308-43.246-30.53l0,0L957.37,638.345l0,0c15.375-5.779,20.939-28.816,12.432-51.455L864.153,305.791z"/><path display="none" fill="none" stroke="#000000" stroke-width="16" stroke-miterlimit="10" d="M144.649,82  c0,0,0-58,67.5-58h159c47.167,0,67.5,20,67.5,58H144.649z M440.551,115h-298v183.853c0,52.732,26.797,99.067,66.402,125.549  l166.925,0.004c37.978-26.776,64.672-74.122,64.672-125.553V115z M446.646,505.926c-6.66-35.669-36.55-55.926-73-55.926h-174  c-36.45,0-68,17.596-73,55.926l-53,382.037c0,36.45,29.55,66.037,66,66.037h304c36.45,0,66-29.587,66-66.037L446.646,505.926z   M291.649,749.696c-28.998,0-52.505,23.508-52.505,52.505c0,28.998,23.507,52.505,52.505,52.505  c28.998,0,52.505-23.507,52.505-52.505C344.154,773.204,320.647,749.696,291.649,749.696z M467.826,115h-27.275v60h23.275  c13.81,0,24.725,11.042,24.725,24.853v131c0,4.97,2.438,9.47,6.138,12.73c3.72,3.25,8.909,5.27,14.569,5.27  c9.35,0,17.137-5.5,19.597-13.02c0.53-3.25,0.696-6.58,0.696-9.98v-149C529.551,142.612,502.066,115,467.826,115z M862.236,325.833   M848.588,536c0-33-17.978-51-59.681-51H648.328c-59.68,0-59.68,51-59.68,51H848.588z M852.551,565h-263v162.993  c0,46.623,23.529,87.589,58.547,111.003L795.527,839c33.578-23.674,57.023-65.534,57.023-111.007V565z M877.037,565h-24.486v54  h20.95c12.209,0,22.05,9.252,22.05,21.462v115.823c0,4.396,2.057,8.374,5.328,11.256c3.289,2.874,7.77,4.659,12.775,4.659  c8.266,0,15.133-4.863,17.307-11.512c0.469-2.873,0.59-5.817,0.59-8.824V620.127C931.551,589.854,907.311,565,877.037,565z   M788.551,864h-135v56h135V864z M140.551,954v15.853c0,9.94,8.121,18.147,18.061,18.147h60c9.94,0,17.939-8.207,17.939-18.147V954  H140.551z M443.551,954v15.853c0,9.94-8,18.147-17.939,18.147h-60c-9.94,0-18.061-8.207-18.061-18.147V954H443.551z"/><path display="none" fill="none" stroke="#000000" stroke-width="16" stroke-miterlimit="10" d="M798.551,860  v42H123.736l21-428h225.814v304.353c0,45.29,36.896,81.647,82.186,81.647H798.551z M123.736,902c0,27,21.49,48,48,48h579  c26.51,0,48-21,48-48H123.736z M94.736,61l50,413h225.814v-56.647c0-33.69,27.496-61.353,61.186-61.353h355l50-295H94.736z   M465.736,357.176L465.736,357.176c0,30.375,24.624,54.824,55,54.824h166c30.376,0,55-24.536,55-54.912l0,0 M579.736,411.926  L579.736,411.926c0,11.046,8.954,20.074,20,20.074h8c11.046,0,20-9.366,20-20.412l0,0 M438.736,537.353 M772.551,537h-334   M712.736,743.353 M789.551,762h48.186c21.539,0,39-17.285,39-38.824l-10-147.088c0-21.539-17.461-39.088-39-39.088h-55.186   M789.736,752.353 M772.736,567.353 M276.551,138c0-7.732-6.268-14-14-14l0,0c-7.732,0-14,6.268-14,14v260c0,7.732,6.268,14,14,14  l0,0c7.732,0,14-6.268,14-14V138z M789.551,797h60.186c33.689,0,61-27.135,61-60.824l-12-172.088c0-33.689-27.311-61.088-61-61.088  h-71.186 M771.736,523.176c0-21.54-17.46-39.176-39-39.176h-322.41l-10.5,27.766l38.34,23.749l-19.43,276.617  c0,21.54,17.46,38.868,39,38.868h295c21.54,0,39-17.372,39-38.912L771.736,523.176z"/><path display="none" fill="none" stroke="#000000" stroke-width="16" stroke-miterlimit="10" d="  M916.092,700.915c-12.98-5.458-27.233-8.477-42.176-8.477c-60.121,0-108.859,48.759-108.859,108.88  c0,34.192,15.767,64.682,40.442,84.682H507.587c-59.149,0-118.84-17.436-125.075-65.995c-2.095-16.163,1.765-35.802,13.558-59.388  c9.187-18.424,23.224-39.276,43.05-62.765c143.793-170.482,415.515-148.53,415.515-148.53  C926.779,549.042,931.529,622.536,916.092,700.915z M916.092,700.915c-12.98-5.458-27.233-8.477-42.176-8.477  c-60.121,0-108.859,48.739-108.859,108.86c0,34.192,15.767,64.705,40.442,84.663c18.705,15.124,42.506,24.18,68.417,24.18  c60.12,0,108.86-48.723,108.86-108.843C982.776,756.138,955.265,717.394,916.092,700.915z M798.87,505.515  c3.3-42.469,75.416-237.719-37.113-332.746c-227.748-192.326-396.704,65.874-396.704,65.874L157.018,840.14 M834.551,548v-48h-70v48   M289.898,840H29.294l-6.598,33h260.604L289.898,840z M599.985,761H396.07c-11.793,24-15.653,43-13.558,59h217.474  c16.396,0,29.688-13.104,29.688-29.5S616.381,761,599.985,761z"/><path display="none" fill="none" stroke="#000000" stroke-width="16" stroke-miterlimit="10" d="  M996.48,825.426c0,24.301-19.699,44.574-44,44.574h-899c-24.3,0-44-20.273-44-44.574l120-658.713c0-24.3,19.7-43.713,44-43.713h649  c24.301,0,44,19.413,44,43.713L996.48,825.426z M502.984,184.853c-142.49,0-258,71.756-258,160.271  c0,88.515,115.511,160.271,258,160.271c142.489,0,258-71.755,258-160.271C760.984,256.608,645.474,184.853,502.984,184.853z   M904.983,641H100.984l-30,160h863.999L904.983,641z M578.551,701h-152v56h152V701z M204.521,870c-0.47,10-9.18,19-19.88,19h-4.18  c-10.7,0-19.41-9-19.88-19H204.521z M844.521,870c-0.47,10-9.189,19-19.88,19h-4.18c-10.69,0-19.41-9-19.88-19H844.521z   M502.984,228.853c-103.372,0-187.17,52.056-187.17,116.271s83.798,116.271,187.17,116.271c103.371,0,187.17-52.056,187.17-116.271  S606.355,228.853,502.984,228.853z"/><path display="none" fill="none" stroke="#000000" stroke-width="16" stroke-miterlimit="10" d="  M567.385,205.069c0,0,23.897,28.4,23.897,62.898c0,0-3.05,145.238-24.049,248.836c0,0-10.203,30.536-25.524,57.649  c0,0-5.631,10.547-12.025,33.547h-50.592c0,0-3.405-14.27-15.404-32.268c0,0-24-39.393-26.999-58.789  c0,0-19.499-92.987-22.499-251.979c0,0,0-31.153,19.499-59.848c0,0,25.498-57.217,13.499-103.715c0,0-14.999-24.01-6-37.51  c0,0,10.437-19.604,61.548-19.505c0,0,59.947-3.002,62.946,23.996c0,0,1.499,11.998-10.5,37.497  C555.183,105.88,544.485,154.585,567.385,205.069z M528.551,608h-50v267h50V608z M525.239,875h-45l-60,59.83l-0.46,16.17h0.21  c0.83,9,8.68,16.17,18.24,16.17c9.56,0,17.4-7.17,18.23-16.17h27.53c0.83,9,8.68,16.17,18.24,16.17c9.55,0,17.399-7.17,18.229-16.17  h27.53c0.83,9,8.68,16.17,18.24,16.17c9.55,0,17.399-7.17,18.229-16.17h0.57l0.21-16.17L525.239,875z M502.736,123.878  c-14.609,0-26.453,11.843-26.453,26.452c0,14.609,11.843,26.453,26.453,26.453s26.452-11.843,26.452-26.453  C529.188,135.721,517.346,123.878,502.736,123.878z M502.736,210.878c-14.609,0-26.453,11.843-26.453,26.452  c0,14.609,11.843,26.453,26.453,26.453s26.452-11.843,26.452-26.453C529.188,222.721,517.346,210.878,502.736,210.878z"/><path fill="none" stroke="#000000" stroke-width="16" stroke-miterlimit="10" d="M810.551,113h-616v-0.425  c0-53.143,43.373-96.575,96.515-96.575h423.502c53.142,0,95.982,43.433,95.982,96.575V113z M810.551,172h-616v547h616V172z   M194.551,776v1.331c0,53.138,43.37,95.669,96.521,95.669h30.81c0,35,28.154,62,62.877,62h236.114c34.723,0,62.878-27,62.878-62  h30.81c53.15,0,95.989-42.531,95.989-95.669V776H194.551z M452.551,935h-44v60h44V935z M596.551,995h-45v-60h45V995z M449.551,875.5  c0,10.217-8.283,18.5-18.5,18.5l0,0c-10.217,0-18.5-8.283-18.5-18.5l0,0c0-10.217,8.283-18.5,18.5-18.5l0,0  C441.268,857,449.551,865.283,449.551,875.5L449.551,875.5z M592.551,875.5c0,10.217-8.283,18.5-18.5,18.5l0,0  c-10.217,0-18.5-8.283-18.5-18.5l0,0c0-10.217,8.283-18.5,18.5-18.5l0,0C584.268,857,592.551,865.283,592.551,875.5L592.551,875.5z"/><path display="none" fill="none" stroke="#000000" stroke-width="16" stroke-miterlimit="10" d="  M868.551,136c0,0-49.759,310.5-47.759,784.5c0,0-23.76,38.5-95.76,58.5h-444c0,0-58.241-6.5-102.241-58.5  c0,0,3.759-318.5-36.241-784.5V79.48c0-26.22,19.281-46.48,42.481-46.48h642c23.2,0,41.519,20.26,41.519,46.48V136z M177.962,129  c0,0,52.769,278,47.115,566c0,0,18.846,24,65.961,30h416.5c0,0,43.779-4.052,69.729-26c0,0,7.539-354,54.654-570H177.962z   M535.551,643c0-6.627-5.373-12-12-12h-36c-6.627,0-12,5.373-12,12v70c0,6.627,5.373,12,12,12h36c6.627,0,12-5.373,12-12V643z   M523.551,725h-36v30h36V725z M504.551,631v-27l-83-26 M181.551,882h-44v42 M137.551,772v42h44 M626.942,242h-244l-20,483h284  L626.942,242z"/><path display="none" fill="none" stroke="#000000" stroke-width="16" stroke-miterlimit="10" d="M980.953,762  c0,32-26.069,58-58.226,58H82.461c-32.157,0-58.225-26-58.225-58H980.953z M981.551,665h-957v97h957V665z M945.551,329h-502v336h502  V329z M977.47,298c0-32-26.069-58-58.226-58H469.428c-32.157,0-58.225,26-58.225,58H977.47z M766.551,236v0.134  c0-24.732-20.264-45.134-44.996-45.134h-54.438c-24.732,0-44.674,20.049-44.674,44.781 M373.551,391.353  c0-34.242-28.073-62.353-62.314-62.353h-208c-34.242,0-61.686,28.111-61.686,62.353V665h332V391.353z M119.551,375v44 M163.551,375  v44 M207.551,375v44 M251.551,375v44 M295.551,375v44"/><path display="none" fill="none" stroke="#000000" stroke-width="16" stroke-miterlimit="10" d="M711.504,883  H108.036c-2.063-64-2.685-123.135-2.135-176.959c0.487-48.301,1.896-92.818,4.032-133.49  c9.256-176.857,32.059-284.367,50.83-345.396c15.537-50.592,28.317-69.259,28.317-69.259L601.293,158h22.969  c5.535,12,10.739,24.531,15.641,37.498c8.157,21.611,15.465,44.309,21.984,67.858c32.204,116.19,45.554,251.8,50.456,366.437  c1.462,34.256,2.177,66.975,2.415,96.4C715.505,819.166,711.504,883,711.504,883z M719.551,929.475  c0-7.441-6.033-13.475-13.475-13.475H116.025c-7.442,0-13.475,6.033-13.475,13.475v32.051c0,7.441,6.033,13.475,13.475,13.475  h590.051c7.441,0,13.475-6.033,13.475-13.475V929.475z M564.432,93.724c-35.397-25.466-87.881-50.313-164.881-56.563V90H253.313  c0,0-31.779,17.748-64.293,68.163L601.232,158h23.602C624.834,158,608.243,125.265,564.432,93.724z M176.551,178H80.218  c0,0,23.573,114.767,54.322,150.461 M624.201,157.544c5.535,12,10.738,24.759,15.641,37.726  c8.157,21.611,15.465,44.423,21.984,67.972l7.618,13.298c-16.242-93.709,28.089-77.722,28.089-77.722  c32.649,10.883,119.715,49.759,125.924,177.248c6.219,127.478-112.014,216.009-112.014,216.009l4.146,116.69  c0,0,98.55-23.33,170.058-163.247c71.518-139.926,37.064-283.977-31.095-368.058C759.723,60.471,564.536,93.556,564.536,93.556   M352.551,38v52 M308.551,56v34"/><path display="none" fill="none" stroke="#000000" stroke-width="16" stroke-miterlimit="10" d="  M951.551,906.618c0,38.696-31.038,69.382-69.734,69.382h-39.266V35h39.266c38.696,0,69.734,31.723,69.734,70.42V906.618z   M22.551,906.618c0,38.696,31.556,69.382,70.252,69.382h39.748V35H92.803c-38.696,0-70.252,31.723-70.252,70.42V906.618z   M249.551,60.895c0-14.301-11.593-25.895-25.894-25.895h-0.212c-14.301,0-25.894,11.593-25.894,25.895v889.211  c0,14.301,11.593,25.895,25.894,25.895h0.212c14.301,0,25.894-11.594,25.894-25.895V60.895z M381.551,60.895  c0-14.301-11.593-25.895-25.895-25.895h-0.211c-14.301,0-25.895,11.593-25.895,25.895v889.211c0,14.301,11.593,25.895,25.895,25.895  h0.211c14.301,0,25.895-11.594,25.895-25.895V60.895z M512.551,60.895c0-14.301-11.593-25.895-25.894-25.895h-0.212  c-14.301,0-25.894,11.593-25.894,25.895v889.211c0,14.301,11.593,25.895,25.894,25.895h0.212c14.301,0,25.894-11.594,25.894-25.895  V60.895z M644.551,60.895c0-14.301-11.593-25.895-25.894-25.895h-0.213c-14.301,0-25.894,11.593-25.894,25.895v889.211  c0,14.301,11.593,25.895,25.894,25.895h0.213c14.301,0,25.894-11.594,25.894-25.895V60.895z M775.551,60.895  c0-14.301-11.594-25.895-25.896-25.895h-0.209c-14.302,0-25.896,11.593-25.896,25.895v889.211c0,14.301,11.594,25.895,25.896,25.895  h0.209c14.302,0,25.896-11.594,25.896-25.895V60.895z M982.551,197.826c0-10.655-7.826-18.826-18.481-18.826h-12.519v85h12.519  c10.655,0,18.481-8.807,18.481-19.462V197.826z M982.551,332.883c0-10.655-7.826-19.883-18.481-19.883h-12.519v85h12.519  c10.655,0,18.481-7.75,18.481-18.406V332.883z M982.551,833.424c0-10.655-7.826-19.424-18.481-19.424h-12.519v56h12.519  c10.655,0,18.481-7.394,18.481-18.05V833.424z"/><path display="none" fill="none" stroke="#000000" stroke-width="16" stroke-miterlimit="10" d="M972.551,326.723  v406.373c0,89.546-72.413,161.904-161.958,161.904H194.875c-89.545,0-162.324-72.358-162.324-161.904V326.723  c0-63.748,37-118.905,90-145.402v556.907c0,28.333,23.467,50.772,51.801,50.772H293.39c28.333,0,51.161-22.439,51.161-50.772  V167.662c0-1.036,0.118-2.662,0.046-3.662h465.996C900.138,164,972.551,237.177,972.551,326.723z M344.522,164.407  C342.942,137.511,320.687,116,293.39,116H174.352c-28.333,0-51.801,23.329-51.801,51.662v570.565  c0,28.333,23.467,50.772,51.801,50.772H293.39c28.333,0,51.161-22.439,51.161-50.772V167.662  C344.551,166.626,344.595,165.424,344.522,164.407z M832.551,243h-361v136h361V243z M557.551,488.759  c0-16.436-13.324-29.759-29.76-29.759h-26.48c-16.436,0-29.76,13.324-29.76,29.759v10.481c0,16.436,13.324,29.759,29.76,29.759  h26.48c16.436,0,29.76-13.323,29.76-29.759V488.759z M695.551,499.241c0,16.436-13.323,29.759-29.759,29.759H639.31  c-16.436,0-29.759-13.323-29.759-29.759v-10.481c0-16.436,13.323-29.759,29.759-29.759h26.482c16.436,0,29.759,13.324,29.759,29.759  V499.241z M832.551,499.241c0,16.436-13.324,29.759-29.76,29.759h-26.48c-16.436,0-29.76-13.323-29.76-29.759v-10.481  c0-16.436,13.324-29.759,29.76-29.759h26.48c16.436,0,29.76,13.324,29.76,29.759V499.241z M557.551,618.76  c0-16.436-13.324-29.76-29.76-29.76h-26.48c-16.436,0-29.76,13.324-29.76,29.76v10.48c0,16.436,13.324,29.76,29.76,29.76h26.48  c16.436,0,29.76-13.324,29.76-29.76V618.76z M695.551,629.24c0,16.436-13.323,29.76-29.759,29.76H639.31  c-16.436,0-29.759-13.324-29.759-29.76v-10.48c0-16.436,13.323-29.76,29.759-29.76h26.482c16.436,0,29.759,13.324,29.759,29.76  V629.24z M832.551,629.24c0,16.436-13.324,29.76-29.76,29.76h-26.48c-16.436,0-29.76-13.324-29.76-29.76v-10.48  c0-16.436,13.324-29.76,29.76-29.76h26.48c16.436,0,29.76,13.324,29.76,29.76V629.24z M557.551,748.76  c0-16.436-13.324-29.76-29.76-29.76h-26.48c-16.436,0-29.76,13.324-29.76,29.76v10.48c0,16.436,13.324,29.76,29.76,29.76h26.48  c16.436,0,29.76-13.324,29.76-29.76V748.76z M695.551,759.24c0,16.436-13.323,29.76-29.759,29.76H639.31  c-16.436,0-29.759-13.324-29.759-29.76v-10.48c0-16.436,13.323-29.76,29.759-29.76h26.482c16.436,0,29.759,13.324,29.759,29.76  V759.24z M832.551,759.24c0,16.436-13.324,29.76-29.76,29.76h-26.48c-16.436,0-29.76-13.324-29.76-29.76v-10.48  c0-16.436,13.324-29.76,29.76-29.76h26.48c16.436,0,29.76,13.324,29.76,29.76V759.24z"/><path display="none" fill="none" stroke="#000000" stroke-width="16" stroke-miterlimit="10" d="M534.58,442.853  c0,0,19.271,108.747,48.102,178.038c27.487,66.067,145.438,184.035,88.547,285.299c0,0-24.707,49.811-94.443,94.811H429.337  c-69.736-45-94.443-94.811-94.443-94.811c-56.891-101.264,61.059-219.194,88.547-285.262  c28.829-69.291,48.101-178.057,48.101-178.057 M795.736,45h-586l-20,398h626L795.736,45z M502.736,10.853  c-7.456,0-13.5,6.044-13.5,13.5s6.044,13.5,13.5,13.5s13.5-6.044,13.5-13.5S510.192,10.853,502.736,10.853z M317.551,841h370"/><path display="none" fill="none" stroke="#000000" stroke-width="16" stroke-miterlimit="10" d="  M965.551,702.334v117.271c0,34.09-27.021,62.396-61.11,62.396H77.372c-34.091,0-62.821-28.306-62.821-62.396V702.334  c0-34.091,28.73-61.334,62.821-61.334h477.313c0,0,65.837-12.539,55.55-105.121c0,0-8.229-63.875-20.574-111.194  c0,0-14.401-59.713-84.353-59.713l-82.295,1.004c0,0-65.836-2.752-104.927,75.428c0,0-16.459,45.596-49.377,45.596H93.831  c0,0-26.745,7.883-43.204-62.067c0,0-49.378-164.184,0-244.422c0,0,14.401-32.511,30.86-32.511h812.666  C894.153,148,965.551,416.357,965.551,702.334z M624.636,192.103c-40.905,0-74.065,33.16-74.065,74.066s33.16,74.066,74.065,74.066  c40.906,0,74.066-33.16,74.066-74.066S665.542,192.103,624.636,192.103z M940.551,387h33.84c37.033-92,0-177,0-177h-65.84   M285.168,641H110.291l-10.287,28h195.451L285.168,641z M260.551,148h-47v301h47V148z M391.551,235.229  c0-4.545-3.685-8.229-8.229-8.229H348.78c-4.545,0-8.229,3.685-8.229,8.229v41.541c0,4.545,3.685,8.229,8.229,8.229h34.541  c4.545,0,8.229-3.685,8.229-8.229V235.229z M267.551,137.229c0-4.545-3.685-8.229-8.229-8.229H213.78  c-4.545,0-8.229,3.685-8.229,8.229v2.541c0,4.545,3.685,8.229,8.229,8.229h45.541c4.545,0,8.229-3.685,8.229-8.229V137.229z   M665.799,328.118c0,0,148.853,73.638,117.989,314.351c0,0-39.985,83.531,34.088,86.531h145.675 M450.598,147.869  c0,179.224,99.973,136.816,99.973,136.816 M197.551,487h-34v154h34V487z"/><path display="none" fill="none" stroke="#000000" stroke-width="16" stroke-miterlimit="10" d="M816.067,797.797  c0,0-10,116-74,188c0,0-252,34-476,0c0,0-60-64-78-186c0,0-32-286,0-572c0,0,5.94-109.84,69-163.16c0.33-0.28,0.66-0.56,1-0.84  c0,0,110-53,234-53c0,0,148.929,0.98,247,51.44c1.01,0.51,2.01,1.03,3,1.56c0,0,62,28,74,152S844.067,679.797,816.067,797.797z   M263.329,63.898c-0.34,0.28-0.778,0.458-0.778,0.738V843h482V62 M262.551,230h482 M704.551,308c0-4.418-3.582-8-8-8h-386  c-4.418,0-8,3.582-8,8v28c0,4.418,3.582,8,8,8h386c4.418,0,8-3.582,8-8V308z M704.551,443c0-4.418-3.582-8-8-8h-386  c-4.418,0-8,3.582-8,8v28c0,4.418,3.582,8,8,8h386c4.418,0,8-3.582,8-8V443z M704.551,579c0-4.418-3.582-8-8-8h-386  c-4.418,0-8,3.582-8,8v28c0,4.418,3.582,8,8,8h386c4.418,0,8-3.582,8-8V579z M704.551,714c0-4.418-3.582-8-8-8h-386  c-4.418,0-8,3.582-8,8v28c0,4.418,3.582,8,8,8h386c4.418,0,8-3.582,8-8V714z M451.551,76c0-4.418-3.582-8-8-8h-8  c-4.418,0-8,3.582-8,8v38c0,4.418,3.582,8,8,8h8c4.418,0,8-3.582,8-8V76z M515.551,114c0,4.418-3.582,8-8,8h-8c-4.418,0-8-3.582-8-8  V76c0-4.418,3.582-8,8-8h8c4.418,0,8,3.582,8,8V114z M579.551,114c0,4.418-3.582,8-8,8h-8c-4.418,0-8-3.582-8-8V76  c0-4.418,3.582-8,8-8h8c4.418,0,8,3.582,8,8V114z"/><path display="none" fill="none" stroke="#000000" stroke-width="16" stroke-miterlimit="10" d="M670.551,709.092  c0,64.316-50.713,116.908-115.029,116.908H452.501c-64.317,0-117.95-52.592-117.95-116.908V631h336V709.092z M575.551,874.5  c0-8.008-6.492-14.5-14.5-14.5h-118c-8.008,0-14.5,6.492-14.5,14.5l0,0c0,8.008,6.492,14.5,14.5,14.5h118  C569.059,889,575.551,882.508,575.551,874.5L575.551,874.5z M575.551,937.5c0-8.008-6.492-14.5-14.5-14.5h-118  c-8.008,0-14.5,6.492-14.5,14.5l0,0c0,8.008,6.492,14.5,14.5,14.5h118C569.059,952,575.551,945.508,575.551,937.5L575.551,937.5z   M435.551,45.065c0-19.171-15.328-34.713-34.5-34.713l0,0c-19.172,0-34.5,15.542-34.5,34.713V539h69V45.065z M536.551,539h-69  V45.065c0-19.171,15.328-34.713,34.5-34.713l0,0c19.172,0,34.5,15.542,34.5,34.713V539z M637.551,539h-70V45.065  c0-19.171,15.83-34.713,35-34.713l0,0c19.174,0,35,15.542,35,34.713V539z M670.578,603c0-18-14.039-32-31.354-32H365.999  c-17.316,0-31.354,14-31.354,32H670.578z M468.022,983c0,10,14.038,18,31.354,18h6.719c17.316,0,31.354-8,31.354-18H468.022z"/><path display="none" fill="none" stroke="#000000" stroke-width="16" stroke-miterlimit="10" d="  M808.551,786.5c0,14.636-11.864,26.5-26.5,26.5h-557c-14.636,0-26.5-11.864-26.5-26.5l0,0c0-14.636,11.864-26.5,26.5-26.5h557  C796.687,760,808.551,771.864,808.551,786.5L808.551,786.5z M797.551,549h-589v165h589V549z M343.709,572.854  c-32.517,0-58.877,26.36-58.877,58.877c0,32.516,26.36,58.877,58.877,58.877s58.876-26.361,58.876-58.877  C402.585,599.214,376.226,572.854,343.709,572.854z M720.1,631.73c0,32.516-26.359,58.877-58.877,58.877  c-32.516,0-58.876-26.361-58.876-58.877c0-32.517,26.36-58.877,58.876-58.877C693.74,572.854,720.1,599.214,720.1,631.73z   M502.467,598.087c-18.581,0-33.645,15.063-33.645,33.644c0,18.58,15.064,33.644,33.645,33.644s33.644-15.063,33.644-33.644  C536.11,613.149,521.048,598.087,502.467,598.087z M986.551,199h-109v606h109V199z M964.72,282.699  c0,18.581-15.063,33.644-33.645,33.644s-33.646-15.063-33.646-33.644s15.064-33.644,33.646-33.644S964.72,264.119,964.72,282.699z   M964.72,404.658c0,18.581-15.063,33.644-33.645,33.644s-33.646-15.063-33.646-33.644s15.064-33.644,33.646-33.644  S964.72,386.078,964.72,404.658z M877.551,734h109 M128.551,805h-109V199h109V805z M106.801,282.699  c0,18.581-15.063,33.644-33.644,33.644c-18.581,0-33.645-15.063-33.645-33.644s15.064-33.644,33.645-33.644  C91.738,249.055,106.801,264.119,106.801,282.699z M106.801,404.658c0,18.581-15.063,33.644-33.644,33.644  c-18.581,0-33.645-15.063-33.645-33.644s15.064-33.644,33.645-33.644C91.738,371.014,106.801,386.078,106.801,404.658z M19.551,734  h109 M670.551,785.263c0-0.146-0.117-0.263-0.263-0.263h-51.475c-0.146,0-0.263,0.117-0.263,0.263v0.475  c0,0.146,0.117,0.263,0.263,0.263h51.475c0.146,0,0.263-0.117,0.263-0.263V785.263z M762.551,785.263  c0-0.146-0.117-0.263-0.263-0.263h-51.475c-0.146,0-0.263,0.117-0.263,0.263v0.475c0,0.146,0.117,0.263,0.263,0.263h51.475  c0.146,0,0.263-0.117,0.263-0.263V785.263z M503.551,785.263c0-0.146-0.117-0.263-0.263-0.263H235.813  c-0.145,0-0.263,0.117-0.263,0.263v0.475c0,0.146,0.118,0.263,0.263,0.263h267.475c0.146,0,0.263-0.117,0.263-0.263V785.263z   M797.551,199h-589v303h589V199z"/><path display="none" fill="none" stroke="#000000" stroke-width="16" stroke-miterlimit="10" d="M989.551,736v110  h-55V736H989.551z M868.71,338H767.352c-5.869,0-11.24,1.383-15.431,4.833C771.937,355.435,790.739,371,808.092,385h60.618  c13.374,0,24.205-10.127,24.205-23.5S882.084,338,868.71,338z M807.73,386.388c-17.354-15.899-35.84-30.223-55.855-42.825  c-55.99-35.234-121.486-56.546-191.803-59.481c-5.522-0.227-11.035-0.082-16.618-0.082H144.07c-10.968,0-21.583,1.111-31.734,3.697  c-55.657,14.145-96.785,64.317-96.785,124.36V919h919V675.288C934.551,560.904,885.896,458.02,807.73,386.388z M464.788,93H207.608  c-52.631,0-95.058,42.529-95.058,95.16v99.271c10-2.586,20.551-3.432,31.519-3.432h399.384c5.583,0,10.097-0.411,17.097-0.184  V188.16C560.551,135.529,517.418,93,464.788,93z M832.479,710.083c-30.287,0-54.841,24.552-54.841,54.84  c0,30.287,24.554,54.841,54.841,54.841s54.84-24.554,54.84-54.841C887.318,734.635,862.766,710.083,832.479,710.083z   M818.082,602.286c-10.854,0-19.65,8.798-19.65,19.649c0,10.853,8.797,19.648,19.65,19.648c10.851,0,19.648-8.796,19.648-19.648  C837.73,611.084,828.933,602.286,818.082,602.286z M777.234,503.196c-10.851,0-19.649,8.797-19.649,19.649  s8.799,19.648,19.649,19.648c10.852,0,19.649-8.796,19.649-19.648S788.086,503.196,777.234,503.196z M698.569,410.158  c-10.854,0-19.651,8.796-19.651,19.649c0,10.853,8.798,19.649,19.651,19.649c10.851,0,19.649-8.796,19.649-19.649  C718.219,418.954,709.42,410.158,698.569,410.158z"/><path display="none" fill="none" stroke="#000000" stroke-width="16" stroke-miterlimit="10" d="  M903.075,371.926c-0.729,273.63-46.8,439.963-46.8,439.963c-11.78,50.07-62.59,67.592-88.57,73.352  c-9.31,2.07-15.43,2.62-15.43,2.62c-12.31,2.29-24.61,4.356-36.85,6.227c-167.23,25.539-325.381,13.187-408.501,2.856l-0.05-0.011  c-38.26-4.76-60.6-9.08-60.6-9.08c-1.21-0.3-2.4-0.611-3.57-0.921c-68.83-18.41-80.43-57.08-80.43-57.08  c-38.56-91.95-52.92-337.237-57.78-457.926c-1.69-42.08-2.22-69.926-2.22-69.926h800C902.886,326,903.136,349.316,903.075,371.926z   M903.18,259c0-44-34.922-78-78-78h-645c-43.078,0-78,34-78,78H903.18z M681.551,150.853c0-43.078-35.472-77.853-78.55-77.853H401  c-43.078,0-77.449,34.774-77.449,77.853V181h358V150.853z M640.551,146.853c0-18.778-15.772-33.853-34.55-33.853H398  c-18.778,0-33.449,15.075-33.449,33.853V181h276V146.853z M304.853,897.016L280.632,939h-40.082v-52.067c1,0.31,2.4,0.62,3.61,0.92  c0,0,22.381,4.357,60.641,9.117L304.853,897.016z M765.551,885.223V939h-39.698l-24.34-41.984l11.819-2.896  c12.24-1.87,24.52-3.959,36.83-6.249C750.162,887.871,755.551,887.293,765.551,885.223z M104.551,372H42.68  c-10.49,0-19.129-8.657-19.129-19.147v-32c0-10.49,8.639-18.853,19.129-18.853h59.871 M901.551,302h61.129  c10.49,0,18.871,8.362,18.871,18.853v32c0,10.49-8.381,19.147-18.871,19.147h-60.129 M599.551,669c0-48.049-38.951-87-87-87h-20  c-48.049,0-87,38.951-87,87v129c0,48.049,38.951,87,87,87h20c48.049,0,87-38.951,87-87V669z M558.551,804c0-14.359-11.641-26-26-26  h-60c-14.359,0-26,11.641-26,26l0,0c0,14.359,11.641,26,26,26h60C546.91,830,558.551,818.359,558.551,804L558.551,804z M488.551,682  h-42v24h42V682z M558.551,706h-42v-24h42V706z"/><text x="-11.449" y="1031" fill="#000000" font-size="5px" font-weight="bold" font-family="'Helvetica Neue', Helvetica, Arial-Unicode, Arial, Sans-serif">Created by shashank singh</text><text x="-11.449" y="1036" fill="#000000" font-size="5px" font-weight="bold" font-family="'Helvetica Neue', Helvetica, Arial-Unicode, Arial, Sans-serif">from the Noun Project</text></svg>