<svg xmlns="http://www.w3.org/2000/svg" xmlns:xlink="http://www.w3.org/1999/xlink" version="1.1" x="0px" y="0px" viewBox="0 0 100 125" enable-background="new 0 0 100 100" xml:space="preserve"><g><path fill="#000000" d="M16.843,22c-1.483,0-2.378,0.992-2.378,2.409c0,0.68,0.308,1.331,0.783,1.785l13.431,12.101v37.268   C28.651,76.838,29.798,78,31.057,78c1.231,0,2.378-1.162,2.351-2.438V38.295l13.43-12.101c0.476-0.454,0.784-1.134,0.784-1.785   c0-1.247-1.315-2.409-2.351-2.409H16.843L16.843,22z M23.083,26.817h15.949l-7.975,7.17L23.083,26.817L23.083,26.817z    M83.156,38.012c-1.287,0-2.351,1.077-2.351,2.409v35.17c0,1.332,1.063,2.409,2.351,2.409c1.315,0,2.379-1.077,2.379-2.409v-35.17   C85.535,39.089,84.472,38.012,83.156,38.012L83.156,38.012z M65.78,53.995c-1.287,0-2.35,1.077-2.35,2.409v19.187   c0,1.332,1.063,2.409,2.35,2.409c1.315,0,2.379-1.077,2.379-2.409V56.404C68.159,55.072,67.096,53.995,65.78,53.995L65.78,53.995z    M48.433,62.016c-1.315,0-2.378,1.049-2.378,2.381v11.194c0,1.332,1.063,2.409,2.378,2.409c1.287,0,2.35-1.077,2.35-2.409V64.396   C50.783,63.064,49.72,62.016,48.433,62.016L48.433,62.016z"/></g><text x="0" y="115" fill="#000000" font-size="5px" font-weight="bold" font-family="'Helvetica Neue', Helvetica, Arial-Unicode, Arial, Sans-serif">Created by romzicon</text><text x="0" y="120" fill="#000000" font-size="5px" font-weight="bold" font-family="'Helvetica Neue', Helvetica, Arial-Unicode, Arial, Sans-serif">from the Noun Project</text></svg>