<svg xmlns="http://www.w3.org/2000/svg" xmlns:xlink="http://www.w3.org/1999/xlink" version="1.1" x="0px" y="0px" viewBox="0 0 100 125" enable-background="new 0 0 100 100" xml:space="preserve"><path d="M23.706,26.673L23.706,26.673c-0.436,0-0.787-0.354-0.787-0.788l0.002-4.665c-0.053-0.899,0.541-1.647,1.063-2.308  c0.351-0.442,0.713-0.899,0.734-1.252c0.021-0.357-0.36-0.851-0.73-1.328c-0.475-0.614-1.014-1.31-1.065-2.154  c-0.06-0.95,0.529-1.741,1.048-2.438c0.358-0.482,0.729-0.98,0.748-1.359c0.03-0.634-0.945-2.105-1.613-2.901  c-0.279-0.333-0.236-0.83,0.097-1.109c0.333-0.28,0.829-0.237,1.109,0.097c0.343,0.408,2.05,2.52,1.98,3.988  c-0.041,0.859-0.581,1.585-1.058,2.226c-0.375,0.504-0.764,1.025-0.74,1.4c0.023,0.361,0.388,0.832,0.739,1.287  c0.522,0.675,1.114,1.439,1.058,2.388c-0.051,0.848-0.594,1.532-1.072,2.136c-0.366,0.461-0.744,0.938-0.725,1.284l-0.001,4.711  C24.493,26.32,24.141,26.673,23.706,26.673z"/><path d="M33.08,26.673L33.08,26.673c-0.436,0-0.787-0.354-0.787-0.788l0.002-4.665c-0.053-0.899,0.541-1.647,1.063-2.308  c0.351-0.442,0.713-0.899,0.734-1.252c0.022-0.357-0.36-0.851-0.73-1.328c-0.475-0.614-1.014-1.31-1.065-2.154  c-0.06-0.95,0.529-1.741,1.048-2.438c0.358-0.482,0.73-0.98,0.748-1.359c0.03-0.634-0.945-2.105-1.613-2.901  c-0.279-0.333-0.236-0.83,0.097-1.109c0.333-0.28,0.829-0.237,1.109,0.097c0.343,0.408,2.051,2.52,1.98,3.988  c-0.041,0.859-0.581,1.585-1.058,2.226c-0.375,0.504-0.764,1.025-0.739,1.4c0.022,0.361,0.387,0.832,0.739,1.287  c0.522,0.675,1.113,1.439,1.057,2.388c-0.051,0.848-0.594,1.532-1.072,2.136c-0.365,0.461-0.743,0.938-0.724,1.284l-0.002,4.711  C33.867,26.32,33.515,26.673,33.08,26.673z"/><path d="M42.474,26.564L42.474,26.564c-0.436,0-0.788-0.353-0.788-0.788l0.002-4.666c-0.053-0.898,0.541-1.646,1.063-2.307  c0.351-0.442,0.714-0.899,0.734-1.252c0.021-0.357-0.36-0.852-0.73-1.329c-0.475-0.613-1.013-1.309-1.066-2.153  c-0.059-0.95,0.529-1.741,1.049-2.438c0.358-0.482,0.729-0.981,0.748-1.36c0.029-0.63-0.944-2.104-1.613-2.901  c-0.279-0.332-0.235-0.829,0.097-1.108c0.333-0.28,0.829-0.237,1.109,0.097c0.344,0.407,2.051,2.52,1.98,3.989  c-0.041,0.857-0.582,1.584-1.058,2.225c-0.375,0.504-0.763,1.025-0.739,1.399c0.021,0.362,0.387,0.833,0.738,1.288  c0.523,0.675,1.114,1.439,1.059,2.388c-0.052,0.847-0.594,1.531-1.073,2.136c-0.366,0.461-0.744,0.938-0.724,1.284l-0.001,4.711  C43.261,26.212,42.908,26.564,42.474,26.564z"/><path d="M52.067,26.564L52.067,26.564c-0.435,0-0.787-0.353-0.787-0.788l0.002-4.666c-0.053-0.898,0.54-1.646,1.063-2.307  c0.351-0.442,0.714-0.899,0.734-1.252c0.021-0.357-0.36-0.852-0.73-1.329c-0.475-0.613-1.013-1.309-1.066-2.153  c-0.059-0.95,0.529-1.741,1.049-2.438c0.358-0.482,0.729-0.981,0.748-1.36c0.029-0.63-0.944-2.104-1.613-2.901  c-0.28-0.332-0.235-0.829,0.097-1.108c0.333-0.28,0.829-0.237,1.109,0.097c0.344,0.407,2.051,2.52,1.979,3.989  c-0.041,0.857-0.581,1.584-1.057,2.225c-0.375,0.504-0.763,1.025-0.739,1.399c0.021,0.362,0.387,0.833,0.738,1.288  c0.522,0.675,1.114,1.439,1.058,2.388c-0.051,0.847-0.593,1.531-1.072,2.136c-0.366,0.461-0.744,0.938-0.724,1.284l-0.001,4.711  C52.855,26.212,52.503,26.564,52.067,26.564z"/><path d="M61.518,26.673L61.518,26.673c-0.435,0-0.787-0.353-0.787-0.788l0.002-4.665c-0.054-0.899,0.54-1.647,1.063-2.308  c0.351-0.442,0.714-0.899,0.734-1.252c0.021-0.357-0.36-0.851-0.73-1.329c-0.475-0.613-1.013-1.309-1.066-2.153  c-0.059-0.95,0.529-1.741,1.049-2.438c0.358-0.482,0.729-0.98,0.748-1.36c0.029-0.63-0.944-2.103-1.613-2.9  c-0.28-0.333-0.236-0.83,0.097-1.109c0.333-0.28,0.828-0.237,1.109,0.097c0.343,0.408,2.051,2.52,1.979,3.989  c-0.041,0.858-0.581,1.584-1.057,2.225c-0.376,0.504-0.763,1.025-0.739,1.4c0.021,0.361,0.387,0.832,0.738,1.287  c0.522,0.675,1.114,1.439,1.058,2.388c-0.051,0.848-0.594,1.531-1.072,2.136c-0.366,0.461-0.744,0.938-0.724,1.284l-0.001,4.711  C62.306,26.32,61.952,26.673,61.518,26.673z"/><path d="M70.881,26.673L70.881,26.673c-0.435,0-0.788-0.353-0.788-0.788l0.002-4.665c-0.053-0.899,0.541-1.647,1.063-2.308  c0.351-0.442,0.714-0.899,0.734-1.252c0.021-0.357-0.359-0.851-0.729-1.329c-0.476-0.613-1.014-1.309-1.066-2.153  c-0.059-0.95,0.528-1.741,1.049-2.438c0.357-0.482,0.729-0.98,0.747-1.36c0.03-0.63-0.944-2.103-1.613-2.9  C70,7.146,70.044,6.648,70.376,6.369c0.332-0.28,0.83-0.237,1.109,0.097c0.344,0.408,2.051,2.52,1.98,3.989  c-0.041,0.858-0.582,1.584-1.058,2.225c-0.375,0.504-0.763,1.025-0.739,1.4c0.021,0.361,0.387,0.832,0.738,1.287  c0.523,0.675,1.115,1.439,1.059,2.388c-0.052,0.848-0.594,1.531-1.072,2.136c-0.366,0.461-0.745,0.938-0.725,1.284l-0.001,4.711  C71.668,26.32,71.315,26.673,70.881,26.673z"/><g><path d="M85.147,78.924v-0.825c0-0.541-0.35-1.156-0.813-1.433l-1.897-1.128c-0.457-0.271-1.195-0.271-1.652,0l-1.896,1.128   c-0.464,0.276-0.813,0.892-0.813,1.433v0.825c0,0.647,0.526,1.174,1.174,1.174h0.067c-0.06,0.177-0.099,0.361-0.099,0.557v1.395   h-1.073c-0.023,0-0.043,0.012-0.065,0.014c-0.19-0.676-0.806-1.176-1.541-1.176h-1.806V40.904h1.806c0.734,0,1.35-0.5,1.54-1.176   c0.023,0.001,0.043,0.013,0.066,0.013h1.073c0.58,0,1.05-0.472,1.05-1.05v-2.888c0-0.578-0.47-1.05-1.05-1.05h-1.073   c-0.023,0-0.043,0.012-0.066,0.014c-0.19-0.677-0.805-1.176-1.54-1.176h-1.806v-0.204c0-1.401-0.42-2.816-1.357-2.816   c-0.166,0-0.306-0.16-0.306-0.35c0-0.799-0.939-1.4-2.188-1.4c-1.247,0-2.188,0.602-2.188,1.4c0,0.189-0.141,0.35-0.307,0.35   c-0.938,0-1.356,1.415-1.356,2.816v0.204h-1.662v-0.203c0-1.402-0.419-2.816-1.355-2.816c-0.166,0-0.307-0.161-0.307-0.351   c0-0.798-0.94-1.4-2.188-1.4c-1.248,0-2.188,0.603-2.188,1.4c0,0.189-0.141,0.351-0.307,0.351c-0.938,0-1.357,1.414-1.357,2.816   v0.203h-1.75V33.39c0-1.401-0.419-2.816-1.356-2.816c-0.166,0-0.306-0.16-0.306-0.35c0-0.799-0.94-1.4-2.188-1.4   c-1.246,0-2.188,0.602-2.188,1.4c0,0.189-0.14,0.35-0.306,0.35c-0.938,0-1.355,1.415-1.355,2.816v0.202h-1.901   c-0.028-1.352-0.446-2.669-1.351-2.669c-0.166,0-0.307-0.16-0.307-0.35c0-0.799-0.939-1.4-2.187-1.4   c-1.248,0-2.188,0.602-2.188,1.4c0,0.189-0.141,0.35-0.307,0.35c-0.903,0-1.322,1.317-1.351,2.669H36.93V33.39   c0-1.401-0.418-2.816-1.355-2.816c-0.166,0-0.307-0.16-0.307-0.35c0-0.799-0.94-1.4-2.188-1.4s-2.188,0.602-2.188,1.4   c0,0.189-0.14,0.35-0.307,0.35c-0.937,0-1.355,1.415-1.355,2.816v0.202h-1.575v-0.203c0-1.401-0.42-2.816-1.356-2.816   c-0.166,0-0.307-0.16-0.307-0.35c0-0.799-0.94-1.4-2.188-1.4c-1.248,0-2.188,0.602-2.188,1.4c0,0.189-0.141,0.35-0.307,0.35   c-0.937,0-1.355,1.415-1.355,2.816v0.203h-1.372c-0.713,0-1.311,0.468-1.521,1.11c-0.03-0.002-0.057-0.018-0.087-0.018h-1.074   c-0.578,0-1.05,0.472-1.05,1.051v2.887c0,0.579,0.472,1.05,1.05,1.05h1.074c0.017,0,0.029-0.008,0.046-0.008   c0.167,0.709,0.802,1.24,1.562,1.24h1.372v39.982H18.64c-0.712,0-1.31,0.469-1.521,1.11c-0.03-0.002-0.056-0.018-0.086-0.018   h-1.074c-0.578,0-1.05,0.471-1.05,1.05v2.888c0,0.579,0.472,1.05,1.05,1.05h1.074c0.016,0,0.029-0.008,0.045-0.009   c0.166,0.709,0.802,1.241,1.562,1.241h1.315v0.809c0,1.401,0.419,2.815,1.355,2.815c0.166,0,0.307,0.16,0.307,0.35   c0,0.798,0.939,1.399,2.188,1.399c1.247,0,2.188-0.602,2.188-1.399c0-0.189,0.141-0.35,0.307-0.35c0.937,0,1.356-1.414,1.356-2.815   v-0.809h1.575v0.809c0,1.401,0.419,2.815,1.355,2.815c0.167,0,0.307,0.16,0.307,0.35c0,0.798,0.94,1.399,2.188,1.399   s2.188-0.602,2.188-1.399c0-0.189,0.141-0.35,0.307-0.35c0.938,0,1.355-1.414,1.355-2.815v-0.809h1.692v1.159   c0,1.401,0.42,2.815,1.356,2.815c0.166,0,0.307,0.16,0.307,0.35c0,0.798,0.939,1.399,2.188,1.399c1.247,0,2.187-0.602,2.187-1.399   c0-0.189,0.141-0.35,0.307-0.35c0.938,0,1.356-1.414,1.356-2.815v-1.159h1.896v0.81c0,1.401,0.418,2.815,1.355,2.815   c0.166,0,0.306,0.16,0.306,0.35c0,0.798,0.941,1.399,2.188,1.399c1.248,0,2.188-0.602,2.188-1.399c0-0.189,0.14-0.35,0.306-0.35   c0.938,0,1.356-1.414,1.356-2.815v-0.81h1.75v0.809c0,1.401,0.42,2.815,1.357,2.815c0.166,0,0.307,0.16,0.307,0.35   c0,0.798,0.939,1.399,2.188,1.399c1.247,0,2.188-0.602,2.188-1.399c0-0.189,0.141-0.35,0.307-0.35c0.937,0,1.355-1.414,1.355-2.815   v-0.809h1.662v0.809c0,1.401,0.419,2.815,1.356,2.815c0.166,0,0.307,0.16,0.307,0.35c0,0.798,0.94,1.399,2.188,1.399   c1.248,0,2.188-0.602,2.188-1.399c0-0.189,0.14-0.35,0.306-0.35c0.938,0,1.357-1.414,1.357-2.815v-0.809h1.806   c0.735,0,1.351-0.5,1.541-1.176c0.022,0.002,0.042,0.014,0.065,0.014h1.073v3.826c-0.632,0.009-1.143,0.521-1.143,1.154v0.748   c0,0.639,0.519,1.157,1.157,1.157h4.759c0.639,0,1.157-0.519,1.157-1.157v-0.748c0-0.633-0.511-1.146-1.143-1.154V80.654   c0-0.195-0.039-0.38-0.098-0.557h0.066C84.621,80.098,85.147,79.571,85.147,78.924z M78.144,35.804h1.073l-0.001,2.888h-1.072   V35.804z M74.731,34.642h1.806c0.307,0,0.557,0.25,0.557,0.557v0.605v2.888v0.605c0,0.308-0.25,0.558-0.557,0.558h-1.806V34.642z    M16.974,38.622h-1.072v-2.887h1.074L16.974,38.622z M17.031,85.917h-1.072v-2.888h1.074L17.031,85.917z M19.955,87.149H18.64   c-0.308,0-0.557-0.25-0.557-0.557v-0.676v-2.888v-0.536c0-0.307,0.249-0.557,0.557-0.557h1.315V87.149z M19.955,39.854h-1.372   c-0.308,0-0.558-0.25-0.558-0.558v-0.675v-2.887v-0.537c0-0.307,0.25-0.557,0.558-0.557h1.372V39.854z M26.604,33.592v1.05v5.213   v1.05v39.982v1.05V83.1v2.887v1.163v1.05v0.809c0,1.037-0.268,1.688-0.306,1.766c-0.748,0-1.356,0.627-1.354,1.384   c-0.038,0.101-0.446,0.365-1.14,0.365s-1.102-0.265-1.138-0.35c0-0.757-0.585-1.375-1.22-1.375c-0.013,0-0.025,0-0.039,0.001   c-0.136-0.104-0.403-0.754-0.403-1.791v-0.809v-1.05v-1.163V83.1v-1.163v-1.05V40.904v-1.05v-5.213v-1.05v-0.203   c0-1.038,0.268-1.688,0.306-1.766c0.748,0,1.356-0.629,1.354-1.386c0.038-0.1,0.445-0.365,1.14-0.365   c0.693,0,1.102,0.266,1.138,0.351c0,0.771,0.624,1.402,1.258,1.374c0.137,0.104,0.404,0.754,0.404,1.792V33.592z M29.23,87.149   h-1.575v-5.213h1.575V87.149z M29.23,80.887h-1.575V40.904h1.575V80.887z M29.23,39.854h-1.575v-5.213h1.575V39.854z M35.881,33.39   v0.202v1.05v5.213v1.05v1.41v35.831v2.741v1.05V83.1v2.817v1.232v1.05v0.809c0,1.037-0.268,1.688-0.307,1.766   c-0.748,0-1.356,0.627-1.354,1.384c-0.038,0.101-0.446,0.365-1.14,0.365s-1.102-0.265-1.138-0.35c0-0.757-0.584-1.375-1.22-1.375   c-0.013,0-0.025,0-0.038,0.001c-0.137-0.104-0.404-0.754-0.404-1.791v-0.809v-1.05v-1.232V83.1v-1.163v-1.05v-2.741V42.314v-1.41   v-1.05v-5.213v-1.05V33.39v-0.7h0.042c0.077-0.626,0.235-1.008,0.264-1.065c0.748,0,1.356-0.629,1.354-1.385   c0.038-0.101,0.446-0.366,1.14-0.366s1.102,0.266,1.138,0.351c0,0.771,0.603,1.401,1.258,1.374c0.103,0.078,0.28,0.464,0.361,1.092   h0.044V33.39z M38.622,87.149H36.93v-5.213h1.692V87.149z M38.622,80.887H36.93V40.904h1.692V80.887z M38.622,39.854H36.93v-5.213   h1.692V39.854z M45.272,34.642v5.213v1.05v39.982v1.05v1.093v2.888v1.232v1.05v1.159c0,1.037-0.269,1.688-0.307,1.766   c-0.747,0-1.356,0.627-1.354,1.384c-0.037,0.101-0.446,0.365-1.139,0.365c-0.693,0-1.103-0.265-1.138-0.35   c0-0.757-0.584-1.375-1.22-1.375c-0.013,0-0.026,0-0.039,0.001c-0.136-0.104-0.404-0.754-0.404-1.791v-1.159v-1.05v-1.232v-2.888   v-1.093v-1.05V40.904v-1.05v-5.213l0.055-1.602c0.075-0.619,0.225-1.01,0.252-1.066c0.747,0,1.356-0.629,1.354-1.385   c0.037-0.101,0.445-0.366,1.14-0.366c0.693,0,1.102,0.266,1.137,0.351c0,0.772,0.62,1.414,1.259,1.375   c0.102,0.076,0.404,1.092,0.404,1.092V34.642z M48.218,87.149h-1.896v-5.213h1.896V87.149z M48.218,80.887h-1.896V40.904h1.896   V80.887z M48.218,39.854h-1.896v-5.213h1.896V39.854z M54.867,33.592v1.05v5.213v1.05v0.557V80.18v0.707v1.05v5.213v1.05v0.61   v0.199c0,1.037-0.268,1.688-0.307,1.766c-0.747,0-1.355,0.627-1.354,1.383c-0.038,0.102-0.447,0.366-1.141,0.366   c-0.692,0-1.101-0.265-1.138-0.35c0-0.757-0.585-1.375-1.22-1.375c-0.013,0-0.025,0-0.037,0.001   c-0.138-0.104-0.404-0.754-0.404-1.791V88.81v-0.61v-1.05v-5.213v-1.05V80.18V41.461v-0.557v-1.05v-5.213v-1.05V33.39   c0-1.038,0.267-1.688,0.306-1.766c0.747,0,1.355-0.629,1.354-1.385c0.039-0.101,0.447-0.366,1.14-0.366   c0.693,0,1.103,0.266,1.139,0.351c0,0.772,0.66,1.412,1.257,1.375c0.138,0.103,0.405,0.753,0.405,1.791V33.592z M57.667,87.149   h-1.75v-5.213h1.75V87.149z M57.667,80.887h-1.75V40.904h1.75V80.887z M57.667,39.854h-1.75v-5.213h1.75V39.854z M64.318,33.592   v1.05v5.213v1.05v0.622v38.896v0.464v1.05v5.213v1.05v0.61v0.198c0,1.037-0.268,1.688-0.306,1.766   c-0.749,0-1.356,0.627-1.354,1.384c-0.038,0.101-0.446,0.365-1.14,0.365s-1.102-0.265-1.138-0.35c0-0.757-0.586-1.375-1.221-1.375   c-0.013,0-0.025,0-0.038,0.001c-0.137-0.104-0.404-0.754-0.404-1.791V88.81v-0.61v-1.05v-5.213v-1.05v-0.464V41.526v-0.622v-1.05   v-5.213v-1.05v-0.203c0-1.039,0.268-1.689,0.307-1.767c0.748,0,1.356-0.628,1.354-1.385c0.038-0.101,0.445-0.365,1.14-0.365   c0.693,0,1.102,0.265,1.138,0.35c0,0.772,0.605,1.389,1.258,1.375c0.137,0.103,0.404,0.754,0.404,1.792V33.592z M67.03,87.149   h-1.662v-5.213h1.662V87.149z M67.03,80.887h-1.662V40.904h1.662V80.887z M67.03,39.854h-1.662v-5.213h1.662V39.854z    M73.681,33.592v1.05v5.213v1.05v1.498v37.976v0.509v1.05v5.213v1.05v0.809c0,1.037-0.268,1.688-0.307,1.766   c-0.747,0-1.355,0.627-1.354,1.383c-0.037,0.102-0.446,0.366-1.14,0.366s-1.102-0.265-1.138-0.35c0-0.757-0.585-1.375-1.22-1.375   c-0.014,0-0.025,0-0.038,0.001c-0.138-0.104-0.405-0.754-0.405-1.791v-0.809v-1.05v-5.213v-1.05v-0.509V42.402v-1.498v-1.05v-5.213   v-1.05v-0.204c0-1.038,0.268-1.688,0.307-1.767c0.749,0,1.356-0.628,1.354-1.385c0.038-0.1,0.446-0.365,1.14-0.365   c0.694,0,1.103,0.266,1.138,0.351c0,0.757,0.585,1.375,1.22,1.375c0.013,0,0.025,0,0.038,0c0.137,0.103,0.404,0.753,0.404,1.791   V33.592z M77.094,83.1v2.887v0.606c0,0.307-0.25,0.557-0.557,0.557h-1.806v-5.213h1.806c0.307,0,0.557,0.25,0.557,0.557V83.1z    M78.144,83.1h1.073l-0.001,2.887h-1.072 M83.99,91.91c0.059,0,0.107,0.05,0.107,0.107v0.748c0,0.059-0.049,0.107-0.107,0.107   h-4.759c-0.059,0-0.107-0.049-0.107-0.107v-0.748c0-0.058,0.049-0.107,0.107-0.107H83.99z M80.267,90.86v-4.874V83.1v-2.445   c0-0.228,0.11-0.422,0.273-0.557h2.142c0.163,0.135,0.273,0.329,0.273,0.557V90.86H80.267z M79.248,79.048   c-0.068,0-0.124-0.057-0.124-0.124v-0.825c0-0.171,0.154-0.443,0.301-0.53l1.896-1.128c0.051-0.031,0.153-0.062,0.289-0.062   s0.238,0.031,0.289,0.062l1.897,1.128c0.146,0.087,0.301,0.359,0.301,0.53v0.825c0,0.067-0.056,0.124-0.124,0.124H79.248z"/><path d="M35.881,33.39v-0.7h-0.044C35.863,32.897,35.881,33.132,35.881,33.39z"/><path d="M30.28,32.689v0.7c0-0.258,0.017-0.492,0.042-0.7H30.28z"/></g><text x="0" y="115" fill="#000000" font-size="5px" font-weight="bold" font-family="'Helvetica Neue', Helvetica, Arial-Unicode, Arial, Sans-serif">Created by Michael Thompson</text><text x="0" y="120" fill="#000000" font-size="5px" font-weight="bold" font-family="'Helvetica Neue', Helvetica, Arial-Unicode, Arial, Sans-serif">from the Noun Project</text></svg>