<svg xmlns="http://www.w3.org/2000/svg" xmlns:xlink="http://www.w3.org/1999/xlink" version="1.1" x="0px" y="0px" viewBox="0 0 100 125" enable-background="new 0 0 100 100" xml:space="preserve"><g><path d="M86.157,71.392h-1.436c-0.987,0-1.786,0.801-1.786,1.786c0,3.062-2.491,5.553-5.553,5.553   c-3.063,0-5.556-2.491-5.556-5.553c0-5.824-4.737-10.563-10.56-10.563c-5.826,0-10.566,4.739-10.566,10.563   c0,3.062-2.49,5.553-5.552,5.553c-1.542,0-3.032-0.659-4.087-1.809c-0.496-0.545-1.279-0.725-1.964-0.457   c-0.686,0.267-1.137,0.928-1.137,1.664v1.95c0,0.548,0.251,1.065,0.684,1.404c1.88,1.478,4.129,2.257,6.505,2.257   c5.824,0,10.563-4.737,10.563-10.563c0-3.063,2.491-5.556,5.555-5.556c3.061,0,5.552,2.493,5.552,5.556   c0,5.825,4.739,10.563,10.563,10.563c5.823,0,10.561-4.737,10.561-10.563C87.943,72.192,87.145,71.392,86.157,71.392z"/><path d="M54.922,15.509H14.745c-1.699,0-3.077,1.378-3.077,3.079c0,1.7,1.378,3.078,3.077,3.078h40.177   c1.701,0,3.079-1.378,3.079-3.078C58.001,16.888,56.623,15.509,54.922,15.509z"/><path d="M54.922,27.823H14.745c-1.699,0-3.077,1.378-3.077,3.079s1.378,3.079,3.077,3.079h40.177c1.701,0,3.079-1.378,3.079-3.079   S56.623,27.823,54.922,27.823z"/><path d="M82.083,3.666H17.917c-7.72,0-14,6.28-14,14v64.167c0,7.72,6.28,14,14,14h64.167c7.72,0,14-6.28,14-14V17.666   C96.083,9.946,89.803,3.666,82.083,3.666z M7.917,81.832V17.666c0-5.514,4.486-10,10-10h64.167c2.206,0,4.241,0.727,5.896,1.942   L9.858,87.729C8.644,86.073,7.917,84.038,7.917,81.832z M92.083,81.832c0,5.514-4.486,10-10,10H17.917   c-1.862,0-3.6-0.521-5.095-1.411l77.85-77.85c0.891,1.495,1.411,3.233,1.411,5.095V81.832z"/></g><text x="0" y="115" fill="#000000" font-size="5px" font-weight="bold" font-family="'Helvetica Neue', Helvetica, Arial-Unicode, Arial, Sans-serif">Created by Maurizio Fusillo</text><text x="0" y="120" fill="#000000" font-size="5px" font-weight="bold" font-family="'Helvetica Neue', Helvetica, Arial-Unicode, Arial, Sans-serif">from the Noun Project</text></svg>