<svg xmlns="http://www.w3.org/2000/svg" xmlns:xlink="http://www.w3.org/1999/xlink" version="1.1" x="0px" y="0px" viewBox="0 0 100 125" enable-background="new 0 0 100 100" xml:space="preserve"><g><path d="M38.665,84.176c-2.07,0-3.187,0.648-3.187,0.913s1.116,0.913,3.187,0.913s3.187-0.648,3.187-0.913   S40.735,84.176,38.665,84.176z"/><path d="M73.286,20.122c-1.229-0.766-2.757-1.72-2.771-1.991c0.167-0.389,1.926-1.852,3.209-2.92   c3.788-3.153,5.166-4.426,4.6-5.297c-0.249-0.383-1.012-1.545-10.98,4.245c-0.528,0.204-4.358-0.04-8.408-0.298   c-5.487-0.349-13.002-0.828-20.31-0.828c-11.803,0-21.329,2.432-23.263,5.921c-0.505,0.347-0.905,0.709-1.188,1.085   c-0.346-0.166-0.671-0.336-0.95-0.516c-0.175-0.113-0.398-0.107-0.566,0.016c-0.167,0.122-0.242,0.334-0.188,0.535l2.251,8.313   l0.955,54.602c0.002,0.083,0.024,0.166,0.065,0.238c2.454,4.316,11.484,7.216,22.471,7.216c11.454,0,20.749-2.869,23.129-7.138   c0.039-0.069,0.061-0.146,0.063-0.226l0.193-5.358c2.532-1.242,21.067-10.42,23.878-14.273c1.73-2.372,3.748-20.061-0.438-30.966   C82.503,25.874,76.733,22.274,73.286,20.122z M38.625,15.78c8.513,0,15.69,1.199,19.917,2.775   c-3.162,0.483-10.571,1.419-20.505,1.419c-10.077,0-17.547-0.682-20.639-1.021C21.245,17.198,28.846,15.78,38.625,15.78z    M38.665,87.002c-2.08,0-4.187-0.657-4.187-1.913c0-2.512,8.373-2.512,8.373,0C42.851,86.345,40.745,87.002,38.665,87.002z    M60.89,69.615c-2.246,2.789-11.508,4.729-22.678,4.729c-10.764,0-19.454-1.895-21.769-4.725L15.72,28.307   c-0.001-0.041-0.007-0.082-0.018-0.122l-1.96-7.238c4.056,1.917,12.296,2.887,24.541,2.887c8.742,0,18.606,0,24.313-1.48   L60.89,69.615z M78.604,59.173c-1.052,1.246-2.327,1.945-3.688,2.023c-0.124,0.007-0.248,0.011-0.369,0.011   c-1.443,0-2.703-0.5-3.75-1.488c-2.384-2.251-3.593-7.021-3.593-14.177c0-10.576,0.953-17.185,5.7-17.457   c4.32-0.254,7.258,5.458,8.485,16.502C82.085,50.833,81.043,56.286,78.604,59.173z"/><path d="M74.38,58.772c-0.076,0-0.152-0.001-0.231-0.005c-1.267-0.054-1.805-1.028-2.161-1.672   c-0.115-0.209-0.309-0.558-0.404-0.588c-0.094,0.053-0.654,0.526-1.209,1.07c0.332,0.558,0.702,1.03,1.11,1.414   c0.927,0.875,2.056,1.28,3.376,1.207c1.079-0.062,2.109-0.64,2.98-1.67c0.58-0.687,1.072-1.538,1.475-2.523l-0.918-0.274   C78.018,57.023,76.865,58.772,74.38,58.772z"/></g><text x="0" y="115" fill="#000000" font-size="5px" font-weight="bold" font-family="'Helvetica Neue', Helvetica, Arial-Unicode, Arial, Sans-serif">Created by NOPIXEL</text><text x="0" y="120" fill="#000000" font-size="5px" font-weight="bold" font-family="'Helvetica Neue', Helvetica, Arial-Unicode, Arial, Sans-serif">from the Noun Project</text></svg>