<svg xmlns="http://www.w3.org/2000/svg" xmlns:xlink="http://www.w3.org/1999/xlink" version="1.1" x="0px" y="0px" viewBox="0 0 80.969 64.60625" enable-background="new 0 0 80.969 51.685" xml:space="preserve"><g><polygon points="10.123,43.061 10.123,40.061 70.846,40.061 70.846,43.061 10.123,43.061  "/></g><g><path d="M1.5,51.685c-0.605,0-1.153-0.365-1.386-0.928l0,0c-0.231-0.56-0.104-1.206,0.326-1.634l0,0l8.183-8.185V1.5   c0-0.395,0.161-0.781,0.44-1.062l0,0C9.341,0.159,9.728,0,10.125,0l0,0h60.72c0.395,0,0.782,0.159,1.062,0.44l0,0   c0.278,0.279,0.439,0.666,0.439,1.06l0,0v3.592v35.846l8.183,8.185c0.43,0.428,0.558,1.074,0.326,1.634l0,0   c-0.233,0.563-0.78,0.928-1.386,0.928l0,0H1.5L1.5,51.685z M11.624,41.561c0,0.395-0.161,0.783-0.44,1.062l0,0l-6.061,6.061h70.723   l-6.062-6.061c-0.28-0.281-0.439-0.667-0.439-1.062l0,0V5.092V3H11.624V41.561L11.624,41.561z"/></g><g><path d="M30.962,47.017c-0.276,0-0.499-0.225-0.499-0.501l0,0c0-0.276,0.223-0.499,0.499-0.499l0,0h19.582   c0.274,0,0.499,0.223,0.499,0.499l0,0c0,0.276-0.225,0.501-0.499,0.501l0,0H30.962L30.962,47.017z"/></g><g><path d="M13.518,14.337c-0.195-0.197-0.195-0.513,0-0.708l0,0l8.831-8.831c0.195-0.195,0.511-0.195,0.707,0l0,0   c0.195,0.195,0.195,0.511,0,0.707l0,0l-8.829,8.833c-0.099,0.097-0.227,0.145-0.355,0.145l0,0   C13.743,14.482,13.615,14.434,13.518,14.337L13.518,14.337z"/></g><g><path d="M13.349,10.674c-0.197-0.195-0.195-0.511,0-0.708l0,0l5.338-5.336c0.195-0.197,0.513-0.195,0.708,0l0,0   c0.195,0.195,0.195,0.511,0,0.706l0,0l-5.34,5.338c-0.098,0.097-0.225,0.146-0.353,0.146l0,0   C13.574,10.82,13.446,10.771,13.349,10.674L13.349,10.674z"/></g><g><path d="M12.598,7.593c-0.195-0.195-0.197-0.511-0.002-0.708l0,0l3.01-3.008c0.195-0.195,0.511-0.197,0.706,0l0,0   c0.195,0.195,0.197,0.511,0,0.706l0,0l-3.008,3.009c-0.098,0.098-0.225,0.146-0.353,0.146l0,0   C12.823,7.739,12.695,7.69,12.598,7.593L12.598,7.593z"/></g><text x="0" y="66.685" fill="#000000" font-size="5px" font-weight="bold" font-family="'Helvetica Neue', Helvetica, Arial-Unicode, Arial, Sans-serif">Created by Icons Stall</text><text x="0" y="71.685" fill="#000000" font-size="5px" font-weight="bold" font-family="'Helvetica Neue', Helvetica, Arial-Unicode, Arial, Sans-serif">from the Noun Project</text></svg>