<svg xmlns="http://www.w3.org/2000/svg" xmlns:xlink="http://www.w3.org/1999/xlink" version="1.1" x="0px" y="0px" viewBox="0 0 38 75" enable-background="new 0 0 38 60" xml:space="preserve"><g><circle cx="13" cy="19" r="1"/><circle cx="19" cy="19" r="1"/><circle cx="25" cy="19" r="1"/><circle cx="13" cy="22" r="1"/><circle cx="19" cy="22" r="1"/><circle cx="25" cy="22" r="1"/><circle cx="13" cy="25" r="1"/><circle cx="19" cy="25" r="1"/><circle cx="25" cy="25" r="1"/><circle cx="13" cy="28" r="1"/><circle cx="19" cy="28" r="1"/><circle cx="25" cy="28" r="1"/><circle cx="13" cy="31" r="1"/><circle cx="19" cy="31" r="1"/><circle cx="25" cy="31" r="1"/><circle cx="13" cy="34" r="1"/><circle cx="19" cy="34" r="1"/><circle cx="25" cy="34" r="1"/><circle cx="13" cy="37" r="1"/><circle cx="19" cy="37" r="1"/><circle cx="25" cy="37" r="1"/><path d="M38,10c0-5.98-9.82-10-19-10S0,4.02,0,10v13.5c0,5.57,1.61,10.96,4.52,15.2c0.07,0.28,0.17,0.56,0.35,0.81   C6.28,41.47,7,43.67,7,46.07V48v2v0.43c0,0.8,0.17,1.56,0.48,2.25L7.6,53h0.04c0.92,1.76,2.75,2.97,4.86,3l3,4h7l3-4   c2.11-0.03,3.94-1.24,4.86-3h0.04l0.12-0.32c0.31-0.69,0.48-1.45,0.48-2.25V50v-2v-1c0-0.31,0.01-0.62,0.04-0.94l0.01-0.09   c0.2-2.3,1.08-4.62,2.47-6.49c0.32-0.42,0.44-0.94,0.4-1.44C36.55,33.91,38,28.77,38,23.5V10z M15,17v21.93   c-0.04-0.01-0.08-0.01-0.13-0.02c-1.3-0.23-2.59-0.57-3.85-1.02c-0.01,0-0.02-0.01-0.03-0.01V17H15z M21,17v22.23   c-0.01,0-0.01,0-0.02,0c-0.6,0.04-1.21,0.07-1.81,0.07c-0.68,0-1.36-0.03-2.03-0.09c-0.05,0-0.09-0.01-0.14-0.01V17H21z M27,17   v21.01c-1.26,0.43-2.55,0.74-3.85,0.96c-0.05,0.01-0.1,0.02-0.15,0.02V17H27z M21.5,58h-5L15,56h8L21.5,58z M25.43,54H12.57   c-0.96,0-1.82-0.38-2.47-1H27.9C27.25,53.62,26.39,54,25.43,54z M29,50.43c0,0.2-0.03,0.38-0.06,0.57H9.06   C9.03,50.81,9,50.62,9,50.43V50h20V50.43z M9,48v-1h20v1H9z M31.91,38.29c-1.45,1.95-2.4,4.31-2.75,6.71H8.96   c-0.19-2.41-1.02-4.65-2.47-6.67c-0.03-0.05-0.04-0.09-0.04-0.13c0-0.05,0.01-0.1,0.04-0.14C7.3,38.51,8.14,38.9,9,39.26v0.01   l0.27,0.1c1.84,0.74,3.77,1.27,5.73,1.58v0.02l0.75,0.1c0.08,0.01,0.16,0.02,0.24,0.03l1,0.13V41.2c0.72,0.06,1.45,0.1,2.18,0.1   c0.61,0,1.21-0.03,1.82-0.07v0.02l1.11-0.12c0,0,0,0,0,0l0.21-0.02c0.08-0.01,0.15-0.02,0.23-0.03L23,41.04v-0.02   c0.13-0.02,0.26-0.04,0.39-0.06c0.13-0.02,0.26-0.04,0.4-0.06c0.41-0.07,0.82-0.16,1.23-0.25c0.11-0.03,0.22-0.05,0.33-0.07   c0.44-0.11,0.87-0.22,1.31-0.35c0.07-0.02,0.15-0.04,0.22-0.06c0.46-0.14,0.92-0.29,1.37-0.46c0.03-0.01,0.07-0.02,0.1-0.03   l0.19-0.07c0.14-0.05,0.28-0.1,0.41-0.15L29,39.42v0c0.99-0.39,1.95-0.84,2.88-1.35c0.02,0.03,0.04,0.06,0.04,0.08l0,0.01   C31.95,38.22,31.92,38.27,31.91,38.29z M36,23.5c0,4.58-1.17,9.05-3.3,12.72c-0.06-0.03-0.13-0.05-0.2-0.07   c-0.07-0.03-0.13-0.06-0.21-0.07C32.12,36.03,31.93,36,31.74,36h-0.26h0l-0.5,0.28c-0.64,0.35-1.31,0.67-1.98,0.96V15h-3v-1   c0-0.55-0.45-1-1-1s-1,0.45-1,1v1h-1v-1c0-0.55-0.45-1-1-1s-1,0.45-1,1v1h-1v-1c0-0.55-0.45-1-1-1s-1,0.45-1,1v1h-1v-1   c0-0.55-0.45-1-1-1s-1,0.45-1,1v1h-1v-1c0-0.55-0.45-1-1-1s-1,0.45-1,1v1H9v22.08c-0.64-0.29-1.27-0.6-1.88-0.95L6.89,36h0H6.62h0   c-0.01,0-0.01,0-0.01,0c-0.21,0-0.41,0.03-0.6,0.09c-0.09,0.03-0.16,0.07-0.25,0.11c-0.11,0.05-0.21,0.09-0.31,0.15   c-0.02,0.01-0.04,0.01-0.05,0.03C3.2,32.66,2,28.16,2,23.5V10c0-4.19,8.1-8,17-8s17,3.81,17,8V23.5z"/></g><text x="0" y="75" fill="#000000" font-size="5px" font-weight="bold" font-family="'Helvetica Neue', Helvetica, Arial-Unicode, Arial, Sans-serif">Created by Oliviu Stoian</text><text x="0" y="80" fill="#000000" font-size="5px" font-weight="bold" font-family="'Helvetica Neue', Helvetica, Arial-Unicode, Arial, Sans-serif">from the Noun Project</text></svg>