<svg xmlns="http://www.w3.org/2000/svg" xmlns:xlink="http://www.w3.org/1999/xlink" version="1.1" x="0px" y="0px" viewBox="0 0 100 125" enable-background="new 0 0 100 100" xml:space="preserve"><path d="M5,73h6v5h11v-5h56v5h11v-5h6V21H5V73z M19,75h-5v-2h5V75z M86,75h-5v-2h5V75z M92,70H67V24h25V70z M8,24h56v46H8V24z"/><path d="M10,26v42h52V26H10z M59,65H13V29h46V65z"/><path d="M89,26H70v9h19V26z M86,32H73v-3h13V32z"/><path d="M80.001,47C75.589,47,72,50.589,72,55c0,4.411,3.589,8,8.001,8C84.412,63,88,59.412,88,55C88,50.589,84.412,47,80.001,47z   M80.001,60C77.244,60,75,57.757,75,55c0-2.757,2.244-5,5.001-5c0.846,0,1.632,0.231,2.331,0.604l-3.217,3.217  c-0.586,0.585-0.586,1.535,0,2.121c0.293,0.293,0.677,0.439,1.061,0.439s0.768-0.146,1.061-0.439l3.2-3.199  C84.785,53.424,85,54.184,85,55C85,57.757,82.758,60,80.001,60z"/><circle cx="72.001" cy="66" r="2"/><rect x="70" y="37" width="6" height="3"/><rect x="70" y="41" width="6" height="3"/><rect x="78" y="37" width="6" height="3"/><rect x="78" y="41" width="6" height="3"/><circle cx="87.5" cy="38.5" r="1.5"/><circle cx="87.5" cy="42.5" r="1.5"/><text x="0" y="115" fill="#000000" font-size="5px" font-weight="bold" font-family="'Helvetica Neue', Helvetica, Arial-Unicode, Arial, Sans-serif">Created by Josy Dom Alexis</text><text x="0" y="120" fill="#000000" font-size="5px" font-weight="bold" font-family="'Helvetica Neue', Helvetica, Arial-Unicode, Arial, Sans-serif">from the Noun Project</text></svg>