<svg xmlns="http://www.w3.org/2000/svg" xmlns:xlink="http://www.w3.org/1999/xlink" version="1.1" x="0px" y="0px" viewBox="0 0 100 125" style="enable-background:new 0 0 100 100;" xml:space="preserve"><style type="text/css">
	.st0{opacity:0.59;}
</style><path d="M90.8,70.6v-4.7H88V12.7c0-1.5-0.5-2.7-1.4-3.6c-1.7-1.6-4.2-1.5-4.6-1.4H68.3c-2.8,0-4.8,0.8-6,2.2c-1.5,1.8-1.2,4-1.2,4.5  v71c0,2.4-0.7,4.3-2,5.5c-2,1.9-5,1.7-5,1.7l0,0h-21c-7.4,0-7.6-5.9-7.6-6.1v-9.3h0v-1.9h0.8v-2.3h9.4c2.7,0,4.8-2.1,4.8-4.8V10.7  c0-2.7-2.1-4.8-4.8-4.8H13.8C11.1,5.9,9,8.1,9,10.7v57.4c0,2.7,2.1,4.8,4.8,4.8h9.4v2.3h0.8v1.9h0v9.3c0,0.1,0,2,1.1,3.8  c1.1,1.7,3.3,3.8,7.9,3.8h21c0.1,0,0.2,0,0.4,0c1.1,0,3.7-0.2,5.7-2.1c1.6-1.5,2.5-3.7,2.5-6.6V14.3l0-0.1c0,0-0.3-1.9,0.8-3.3  c0.9-1.1,2.6-1.7,4.9-1.7h13.7l0.1,0c0,0,2.2-0.1,3.5,1c0.6,0.6,0.9,1.4,0.9,2.4v53.1h-2.7v4.7h-3.1v17.2h1.9v5.4h1.6v-5.4h6.2v5.4  H92v-5.4h1.9V70.6H90.8z M24.7,8.3c0.5,0,0.8,0.4,0.8,0.8c0,0.5-0.4,0.8-0.8,0.8c-0.5,0-0.8-0.4-0.8-0.8C23.9,8.7,24.3,8.3,24.7,8.3  z M21.9,11.3c0.1-0.1,0.3-0.2,0.5-0.2h4.8c0.4,0,0.6,0.3,0.6,0.6c0,0.4-0.3,0.6-0.6,0.6h-4.8c-0.4,0-0.6-0.3-0.6-0.6  C21.7,11.6,21.8,11.4,21.9,11.3z M11.1,63.5V14.8h27.4v48.7H11.1z M24.7,65.9c1.2,0,2.1,1,2.1,2.1c0,1.2-1,2.1-2.1,2.1  c-1.2,0-2.1-1-2.1-2.1C22.6,66.8,23.6,65.9,24.7,65.9z"/><text x="0" y="115" fill="#000000" font-size="5px" font-weight="bold" font-family="'Helvetica Neue', Helvetica, Arial-Unicode, Arial, Sans-serif">Created by Nicole Macdonald</text><text x="0" y="120" fill="#000000" font-size="5px" font-weight="bold" font-family="'Helvetica Neue', Helvetica, Arial-Unicode, Arial, Sans-serif">from the Noun Project</text></svg>