<svg xmlns:dc="http://purl.org/dc/elements/1.1/" xmlns:cc="http://creativecommons.org/ns#" xmlns:rdf="http://www.w3.org/1999/02/22-rdf-syntax-ns#" xmlns:svg="http://www.w3.org/2000/svg" xmlns="http://www.w3.org/2000/svg" xmlns:sodipodi="http://sodipodi.sourceforge.net/DTD/sodipodi-0.dtd" xmlns:inkscape="http://www.inkscape.org/namespaces/inkscape" version="1.1" x="0px" y="0px" viewBox="0 0 100 125"><g transform="translate(0,-952.36218)"><path style="font-size:medium;font-style:normal;font-variant:normal;font-weight:normal;font-stretch:normal;text-indent:0;text-align:start;text-decoration:none;line-height:normal;letter-spacing:normal;word-spacing:normal;text-transform:none;direction:ltr;block-progression:tb;writing-mode:lr-tb;text-anchor:start;baseline-shift:baseline;opacity:1;color:#000000;fill:#000000;fill-opacity:1;stroke:none;stroke-width:3.99999976000000010;marker:none;visibility:visible;display:inline;overflow:visible;enable-background:accumulate;font-family:Sans;-inkscape-font-specification:Sans" d="m 57.96875,15.96875 c -0.08388,0.0052 -0.167433,0.01559 -0.25,0.03125 -0.425864,0.06961 -0.827229,0.281439 -1.125,0.59375 C 52.728145,20.5241 50,25.9393 50,32 c 0,6.06071 2.728145,11.4759 6.59375,15.40625 0.745424,0.702537 2.051275,0.68681 2.779564,-0.03348 0.728288,-0.720286 0.758444,-2.025882 0.06419,-2.779024 C 56.202987,41.30506 54,36.86476 54,32 c 0,-4.86474 2.202987,-9.30506 5.4375,-12.59375 0.578755,-0.558856 0.766045,-1.484941 0.449935,-2.224773 -0.31611,-0.739832 -1.114783,-1.244643 -1.918685,-1.212727 z m 27.8125,0 c -0.749727,0.07323 -1.435072,0.607631 -1.688845,1.316893 C 83.838632,17.994905 84.0294,18.84278 84.5625,19.375 87.797012,22.66369 90,27.13526 90,32 c 0,4.86475 -2.202987,9.30506 -5.4375,12.59375 -0.742528,0.749675 -0.72798,2.111521 0.03039,2.845164 0.758372,0.733642 2.119952,0.70305 2.844608,-0.06391 C 91.303105,43.44465 94,38.06071 94,32 94,25.9393 91.303106,20.5241 87.4375,16.59375 c -0.417359,-0.44661 -1.047889,-0.684546 -1.65625,-0.625 z m -22.90625,7 c -0.575866,0.04171 -1.127419,0.346824 -1.46875,0.8125 C 59.663055,26.12959 59,29.19743 59,32 c 0,2.80257 0.663055,5.83916 2.40625,8.1875 0.60318,0.902722 2.001715,1.139275 2.868227,0.485143 0.866512,-0.654132 1.022189,-2.063962 0.319273,-2.891393 C 63.620409,36.47001 63,34.10519 63,32 c 0,-2.10519 0.620409,-4.50126 1.59375,-5.8125 0.468261,-0.605848 0.54249,-1.489899 0.181813,-2.165349 C 64.414886,23.346701 63.63894,22.916627 62.875,22.96875 z m 18,0 c -0.722373,0.04156 -1.404448,0.508276 -1.704825,1.166548 -0.300377,0.658273 -0.205927,1.479329 0.236075,2.052202 C 80.379591,27.49874 81,29.89481 81,32 c 0,2.10519 -0.620409,4.47001 -1.59375,5.78125 -0.702916,0.827431 -0.547239,2.237261 0.319273,2.891393 0.866512,0.654132 2.265047,0.417579 2.868227,-0.485143 C 84.336945,37.83916 85,34.80257 85,32 85,29.19743 84.336945,26.12959 82.59375,23.78125 82.202578,23.249204 81.534421,22.933347 80.875,22.96875 z m -9.09375,7 C 70.798498,30.076745 69.978736,31.01156 70,32 L 70,56 8,56 C 7.9375458,55.99707 7.8749542,55.99707 7.8125,56 6.8293323,56.092661 5.9957418,57.012485 6,58 l 0,24 c 1.046e-4,1.047169 0.952831,1.999895 2,2 l 84,0 c 1.047169,-1.05e-4 1.999895,-0.952831 2,-2 l 0,-24 c -1.05e-4,-1.047169 -0.952831,-1.999895 -2,-2 l -18,0 0,-24 c 0.02444,-1.13455 -1.09076,-2.155508 -2.21875,-2.03125 z M 10,60 l 80,0 0,20 -80,0 z m 5.8125,4 C 14.829332,64.092661 13.995742,65.012485 14,66 l 0,8 c 1.04e-4,1.047169 0.952831,1.999896 2,2 l 8,0 c 1.047169,-1.04e-4 1.999896,-0.952831 2,-2 l 0,-8 c -1.04e-4,-1.047169 -0.952831,-1.999896 -2,-2 l -8,0 c -0.06245,-0.0029 -0.125046,-0.0029 -0.1875,0 z m 16,0 C 30.829332,64.092661 29.995742,65.012485 30,66 l 0,8 c 1.04e-4,1.047169 0.952831,1.999896 2,2 l 8,0 c 1.047169,-1.04e-4 1.999896,-0.952831 2,-2 l 0,-8 c -1.04e-4,-1.047169 -0.952831,-1.999896 -2,-2 l -8,0 c -0.06245,-0.0029 -0.125046,-0.0029 -0.1875,0 z m 16,0 C 46.829332,64.092661 45.995742,65.012485 46,66 l 0,8 c 1.04e-4,1.047169 0.952831,1.999896 2,2 l 8,0 c 1.047169,-1.04e-4 1.999896,-0.952831 2,-2 l 0,-8 c -1.04e-4,-1.047169 -0.952831,-1.999896 -2,-2 l -8,0 c -0.06245,-0.0029 -0.125046,-0.0029 -0.1875,0 z M 80,64 c -3.29002,0 -6,2.71 -6,6 0,3.29 2.70998,6 6,6 3.290019,0 6,-2.71 6,-6 0,-3.29 -2.709981,-6 -6,-6 z m -62,4 4,0 0,4 -4,0 z m 16,0 4,0 0,4 -4,0 z m 16,0 4,0 0,4 -4,0 z m 30,0 c 1.12826,0 2,0.8717 2,2 0,1.1282 -0.87174,2 -2,2 -1.128261,0 -2,-0.8718 -2,-2 0,-1.1283 0.871739,-2 2,-2 z" transform="translate(0,952.36218)"/></g><text x="0" y="115" fill="#000000" font-size="5px" font-weight="bold" font-family="'Helvetica Neue', Helvetica, Arial-Unicode, Arial, Sans-serif">Created by bezier master</text><text x="0" y="120" fill="#000000" font-size="5px" font-weight="bold" font-family="'Helvetica Neue', Helvetica, Arial-Unicode, Arial, Sans-serif">from the Noun Project</text></svg>