<svg xmlns="http://www.w3.org/2000/svg" xmlns:xlink="http://www.w3.org/1999/xlink" version="1.1" x="0px" y="0px" viewBox="0 0 100 125" enable-background="new 0 0 100 100" xml:space="preserve"><g><path fill-rule="evenodd" clip-rule="evenodd" d="M29.365,22.79c-1.08,0-2.101,0.6-2.641,1.56l-11.04,19.2   c-0.84,1.44-0.36,3.36,1.14,4.26L35.964,58.91v7.14c0,2.4-1.86,4.32-4.26,4.32h-16.86c-1.14-0.061-1.14,1.62,0,1.56h16.86   c3.239,0,5.879-2.64,5.879-5.88v-6.24l3.961,2.28v5.22c0,4.62-3.66,8.28-8.28,8.28h-18.42c-1.14,0-1.14,1.62,0,1.62h18.42   c5.46,0,9.899-4.439,9.899-9.9V62.99l18.781,10.92c1.5,0.84,3.42,0.36,4.26-1.14l1.86-3.181l5.34,3.12   c1.5,0.84,3.54,0.66,4.86-0.479l6.78-6c0.659-0.601,1.02-1.381,0.96-2.16c-0.061-0.84-0.601-1.561-1.38-1.98l-9.181-5.34l1.8-3.18   c0.841-1.44,0.36-3.36-1.14-4.261l-45.121-26.1c-0.359-0.24-0.779-0.36-1.199-0.42C29.664,22.79,29.484,22.79,29.365,22.79   L29.365,22.79z M29.304,24.41c0.3-0.06,0.6,0,0.84,0.18l45.18,26.101c0.721,0.479,0.96,1.38,0.54,2.1l-2.22,3.84l0,0l-6.6,11.46   l-2.221,3.9c-0.42,0.72-1.319,0.96-2.04,0.54l-45.18-26.16c-0.72-0.42-0.96-1.32-0.54-2.04l11.04-19.2   c0.24-0.36,0.54-0.6,0.899-0.72C29.125,24.41,29.184,24.41,29.304,24.41L29.304,24.41z M74.604,58.13l9.24,5.34   c0.42,0.24,0.54,0.48,0.54,0.721c0.06,0.239-0.061,0.54-0.42,0.84l-6.78,6c-0.72,0.6-2.16,0.72-3,0.3l-5.34-3.12L74.604,58.13   L74.604,58.13z"/></g><text x="0" y="115" fill="#000000" font-size="5px" font-weight="bold" font-family="'Helvetica Neue', Helvetica, Arial-Unicode, Arial, Sans-serif">Created by artworkbean</text><text x="0" y="120" fill="#000000" font-size="5px" font-weight="bold" font-family="'Helvetica Neue', Helvetica, Arial-Unicode, Arial, Sans-serif">from the Noun Project</text></svg>