<svg xmlns="http://www.w3.org/2000/svg" xmlns:xlink="http://www.w3.org/1999/xlink" version="1.1" x="0px" y="0px" viewBox="0 0 512 640" enable-background="new 0 0 512 512" xml:space="preserve"><g><path d="M330.9,2c-70.5,0-128,56.1-130.5,126C117.7,134.8,52.9,202,50.4,286.5c-0.1,3.8,0,14.5,14.1,14.5h299.4   c13.9,0,14.2-10.7,14.1-14.5c-2.5-84.4-67-151.4-149.5-158.4c2.5-54.4,47.4-97.8,102.3-97.8c56.6,0,102.6,46,102.6,102.6v363.1   c0,7.8,6.3,14.1,14.1,14.1c7.8,0,14.1-6.3,14.1-14.1V132.8C461.6,60.7,403,2,330.9,2z M348.6,272.8H79.8   c9-66.8,65.5-117.2,134.4-117.2S339.6,206,348.6,272.8z"/><path d="M177.7,456.7c-7.8,0-14.1,6.3-14.1,14.1v25.1c0,7.8,6.3,14.1,14.1,14.1s14.1-6.3,14.1-14.1v-25.1   C191.8,463,185.5,456.7,177.7,456.7z"/><path d="M250.7,456.7c-7.8,0-14.1,6.3-14.1,14.1v25.1c0,7.8,6.3,14.1,14.1,14.1s14.1-6.3,14.1-14.1v-25.1   C264.8,463,258.5,456.7,250.7,456.7z"/><path d="M141.2,384.9c-7.8,0-14.1,6.3-14.1,14.1V424c0,7.8,6.3,14.1,14.1,14.1s14.1-6.3,14.1-14.1V399   C155.3,391.2,149,384.9,141.2,384.9z"/><path d="M214.2,384.9c-7.8,0-14.1,6.3-14.1,14.1V424c0,7.8,6.3,14.1,14.1,14.1s14.1-6.3,14.1-14.1V399   C228.3,391.2,222,384.9,214.2,384.9z"/><path d="M287.2,384.9c-7.8,0-14.1,6.3-14.1,14.1V424c0,7.8,6.3,14.1,14.1,14.1c7.8,0,14.1-6.3,14.1-14.1V399   C301.3,391.2,294.9,384.9,287.2,384.9z"/><path d="M104.7,313c-7.8,0-14.1,6.3-14.1,14.1v25.1c0,7.8,6.3,14.1,14.1,14.1c7.8,0,14.1-6.3,14.1-14.1v-25.1   C118.9,319.3,112.5,313,104.7,313z"/><path d="M177.7,313c-7.8,0-14.1,6.3-14.1,14.1v25.1c0,7.8,6.3,14.1,14.1,14.1s14.1-6.3,14.1-14.1v-25.1   C191.8,319.3,185.5,313,177.7,313z"/><path d="M250.7,313c-7.8,0-14.1,6.3-14.1,14.1v25.1c0,7.8,6.3,14.1,14.1,14.1s14.1-6.3,14.1-14.1v-25.1   C264.8,319.3,258.5,313,250.7,313z"/><path d="M323.6,313c-7.8,0-14.1,6.3-14.1,14.1v25.1c0,7.8,6.3,14.1,14.1,14.1c7.8,0,14.1-6.3,14.1-14.1v-25.1   C337.7,319.3,331.4,313,323.6,313z"/></g><text x="0" y="527" fill="#000000" font-size="5px" font-weight="bold" font-family="'Helvetica Neue', Helvetica, Arial-Unicode, Arial, Sans-serif">Created by Icon Fair</text><text x="0" y="532" fill="#000000" font-size="5px" font-weight="bold" font-family="'Helvetica Neue', Helvetica, Arial-Unicode, Arial, Sans-serif">from the Noun Project</text></svg>