<svg xmlns:dc="http://purl.org/dc/elements/1.1/" xmlns:cc="http://creativecommons.org/ns#" xmlns:rdf="http://www.w3.org/1999/02/22-rdf-syntax-ns#" xmlns:svg="http://www.w3.org/2000/svg" xmlns="http://www.w3.org/2000/svg" xmlns:sodipodi="http://sodipodi.sourceforge.net/DTD/sodipodi-0.dtd" xmlns:inkscape="http://www.inkscape.org/namespaces/inkscape" version="1.1" x="0px" y="0px" viewBox="0 0 100 125"><g transform="translate(0,-952.36218)"><path style="font-size:medium;font-style:normal;font-variant:normal;font-weight:normal;font-stretch:normal;text-indent:0;text-align:start;text-decoration:none;line-height:normal;letter-spacing:normal;word-spacing:normal;text-transform:none;direction:ltr;block-progression:tb;writing-mode:lr-tb;text-anchor:start;baseline-shift:baseline;opacity:1;color:#000000;fill:#000000;fill-opacity:1;stroke:none;stroke-width:2;marker:none;visibility:visible;display:inline;overflow:visible;enable-background:accumulate;font-family:Sans;-inkscape-font-specification:Sans" d="M 14 8 C 13.493739 8 13.097467 8.3868993 13.03125 8.875 L 13 8.875 L 7 68.875 L 7.09375 68.875 C 7.0875693 68.919947 7.0625 68.953354 7.0625 69 C 7.0625 69.552285 7.5102153 70 8.0625 70 L 49 70 L 49 90 L 40 90 C 39.447715 90 39 90.447715 39 91 C 39 91.552285 39.447715 92 40 92 L 60 92 C 60.552285 92 61 91.552285 61 91 C 61 90.447715 60.552285 90 60 90 L 51 90 L 51 70 L 92 70 C 92.552285 70 93 69.552285 93 69 C 93 68.953976 92.97477 68.919373 92.96875 68.875 L 93 68.875 L 87 8.875 L 86.96875 8.875 C 86.902533 8.3868993 86.506261 8 86 8 L 14 8 z M 14.90625 10 L 36.9375 10 L 35.71875 28 L 13.125 28 L 14.90625 10 z M 38.9375 10 L 60.0625 10 L 61.25 28 L 37.75 28 L 38.9375 10 z M 62.0625 10 L 85.09375 10 L 86.875 28 L 63.25 28 L 62.0625 10 z M 12.90625 30 L 35.59375 30 L 34.40625 48 L 11.125 48 L 12.90625 30 z M 37.59375 30 L 61.40625 30 L 62.59375 48 L 36.40625 48 L 37.59375 30 z M 63.40625 30 L 87.09375 30 L 88.875 48 L 64.59375 48 L 63.40625 30 z M 10.90625 50 L 34.25 50 L 33.0625 68 L 9.125 68 L 10.90625 50 z M 36.28125 50 L 62.75 50 L 63.9375 68 L 35.0625 68 L 36.28125 50 z M 64.75 50 L 89.09375 50 L 90.875 68 L 65.9375 68 L 64.75 50 z " transform="translate(0,952.36218)"/></g><text x="0" y="115" fill="#000000" font-size="5px" font-weight="bold" font-family="'Helvetica Neue', Helvetica, Arial-Unicode, Arial, Sans-serif">Created by Rockicon</text><text x="0" y="120" fill="#000000" font-size="5px" font-weight="bold" font-family="'Helvetica Neue', Helvetica, Arial-Unicode, Arial, Sans-serif">from the Noun Project</text></svg>