<svg xmlns:dc="http://purl.org/dc/elements/1.1/" xmlns:cc="http://creativecommons.org/ns#" xmlns:rdf="http://www.w3.org/1999/02/22-rdf-syntax-ns#" xmlns:svg="http://www.w3.org/2000/svg" xmlns="http://www.w3.org/2000/svg" xmlns:sodipodi="http://sodipodi.sourceforge.net/DTD/sodipodi-0.dtd" xmlns:inkscape="http://www.inkscape.org/namespaces/inkscape" version="1.1" x="0px" y="0px" viewBox="0 0 100 125"><g transform="translate(0,-952.36218)"><path style="text-indent:0;text-transform:none;direction:ltr;block-progression:tb;baseline-shift:baseline;color:#000000;enable-background:accumulate;" d="M 14,7 C 12.969339,7 12.108945,7.7795713 12,8.78125 10.135236,28.860541 7.7757152,48.930719 6,69 c 0,1.104569 0.8954305,2 2,2 0.021117,0 0.041541,6.5e-4 0.0625,0 L 48,71 l 0,18 -8,0 c -1.104569,0 -2,0.895431 -2,2 0,1.104569 0.895431,2 2,2 l 20,0 c 1.104569,0 2,-0.895431 2,-2 0,-1.104569 -0.895431,-2 -2,-2 l -8,0 0,-18 40,0 c 1.104569,0 2,-0.895431 2,-2 C 92.039667,48.946093 90.006731,28.848562 88,8.78125 l -0.03125,0 C 87.858727,7.7807107 87.029849,7 86,7 z m 1.8125,4 20.03125,0 -1.0625,16 -20.5625,0 z m 24.0625,0 19.25,0 1.0625,16 -21.375,0 z m 23.28125,0 21.03125,0 1.59375,16 -21.5625,0 z m -49.34375,20 20.71875,0 -1.0625,16 -21.25,0 z M 38.53125,31 60.4375,31 61.5,47 37.46875,47 z M 64.5,31 86.1875,31 87.78125,47 65.5625,47 z m -52.6875,20 21.375,0 -1.0625,16 -21.90625,0 z m 25.40625,0 24.5625,0 1.0625,16 -26.6875,0 z m 28.59375,0 22.375,0 1.59375,16 -22.90625,0 z" transform="translate(0,952.36218)" fill="#000000" fill-opacity="1" stroke="none" marker="none" visibility="visible" display="inline" overflow="visible"/></g><text x="0" y="115" fill="#000000" font-size="5px" font-weight="bold" font-family="'Helvetica Neue', Helvetica, Arial-Unicode, Arial, Sans-serif">Created by Rockicon</text><text x="0" y="120" fill="#000000" font-size="5px" font-weight="bold" font-family="'Helvetica Neue', Helvetica, Arial-Unicode, Arial, Sans-serif">from the Noun Project</text></svg>