<svg xmlns:dc="http://purl.org/dc/elements/1.1/" xmlns:cc="http://creativecommons.org/ns#" xmlns:rdf="http://www.w3.org/1999/02/22-rdf-syntax-ns#" xmlns:svg="http://www.w3.org/2000/svg" xmlns="http://www.w3.org/2000/svg" xmlns:sodipodi="http://sodipodi.sourceforge.net/DTD/sodipodi-0.dtd" xmlns:inkscape="http://www.inkscape.org/namespaces/inkscape" version="1.1" x="0px" y="0px" viewBox="0 0 100 125"><g transform="translate(0,-952.36218)"><path style="text-indent:0;text-transform:none;direction:ltr;block-progression:tb;baseline-shift:baseline;color:#000000;enable-background:accumulate;" d="m 72,960.36218 c -2.19729,0 -4,1.8027 -4,4 0,0.7479 0.23155,1.4303 0.59375,2.0312 l -18.0625,19.9688 -1.1875,0 -19.8125,-14.1562 C 29.82346,971.65148 30,971.02838 30,970.36218 c 0,-2.1973 -1.802711,-4 -4.000001,-4 -2.19729,0 -4,1.8027 -4,4 0,2.1973 1.80271,4 4,4 0.79863,0 1.52948,-0.2476 2.15625,-0.6562 l 17.718751,12.6562 -34.875001,0 c -2.198689,0 -3.999999,1.8013 -3.999999,4 l 0,50.00002 c 0,2.1987 1.80131,4 3.999999,4 l 78.000001,0 c 2.1987,0 4,-1.8013 4,-4 l 0,-50.00002 c 0,-2.1987 -1.8013,-4 -4,-4 l -35.75,0 16.78125,-18.5312 c 0.58401,0.3349 1.25181,0.5312 1.96875,0.5312 2.19729,0 4,-1.8027 4,-4 0,-2.1973 -1.80271,-4 -4,-4 z m 0,2 c 1.11641,0 2,0.8836 2,2 0,1.1164 -0.88359,2 -2,2 -1.11641,0 -2,-0.8836 -2,-2 0,-1.1164 0.88359,-2 2,-2 z m -46.000001,6 c 1.11641,0 2,0.8836 2,2 0,1.1164 -0.88359,2 -2,2 -1.1164,0 -2,-0.8836 -2,-2 0,-1.1164 0.8836,-2 2,-2 z m -15,20 78.000001,0 c 1.12529,0 2,0.8747 2,2 l 0,50.00002 c 0,1.1253 -0.87471,2 -2,2 l -78,0 c -1.1252905,0 -2,-0.8747 -2,-2 l 0,-50.00002 c 0,-1.1253 0.8747095,-2 2,-2 z m 5.84375,7 a 1.0001,1.0001 0 0 0 -0.84375,1 l 0,38.00002 a 1.0001,1.0001 0 0 0 1,1 l 49.000001,0 a 1.0001,1.0001 0 0 0 1,-1 l 0,-38.00002 a 1.0001,1.0001 0 0 0 -1,-1 l -49.000001,0 a 1.0001,1.0001 0 0 0 -0.15625,0 z m 62.156251,0 c -2.74958,0 -5,2.2504 -5,5.00002 0,2.7496 2.25042,5 5,5 2.74958,0 5,-2.2504 5,-5 0,-2.74962 -2.25042,-5.00002 -5,-5.00002 z m -61.000001,2 47.000001,0 0,36.00002 -47.000001,0 0,-36.00002 z m 61.000001,0 c 1.6687,0 3,1.3313 3,3.00002 0,1.6687 -1.3313,3 -3,3 -1.6687,0 -3,-1.3313 -3,-3 0,-1.66872 1.3313,-3.00002 3,-3.00002 z m -5,13.00002 c -0.55228,0 -1,0.4477 -1,1 0,0.5523 0.44772,1 1,1 l 10,0 c 0.55228,0 1,-0.4477 1,-1 0,-0.5523 -0.44772,-1 -1,-1 l -10,0 z m 0,6 c -0.55228,0 -1,0.4477 -1,1 0,0.5523 0.44772,1 1,1 l 10,0 c 0.55228,0 1,-0.4477 1,-1 0,-0.5523 -0.44772,-1 -1,-1 l -10,0 z m 0,6 c -0.55228,0 -1,0.4477 -1,1 0,0.5523 0.44772,1 1,1 l 10,0 c 0.55228,0 1,-0.4477 1,-1 0,-0.5523 -0.44772,-1 -1,-1 l -10,0 z" fill="#000000" fill-opacity="1" stroke="none" marker="none" visibility="visible" display="inline" overflow="visible"/></g><text x="0" y="115" fill="#000000" font-size="5px" font-weight="bold" font-family="'Helvetica Neue', Helvetica, Arial-Unicode, Arial, Sans-serif">Created by unlimicon</text><text x="0" y="120" fill="#000000" font-size="5px" font-weight="bold" font-family="'Helvetica Neue', Helvetica, Arial-Unicode, Arial, Sans-serif">from the Noun Project</text></svg>