<svg xmlns="http://www.w3.org/2000/svg" xmlns:xlink="http://www.w3.org/1999/xlink" viewBox="0 0 61 68.75" version="1.1" x="0px" y="0px"><title>Group 229</title><desc>Created with Sketch.</desc><g stroke="none" stroke-width="1" fill="none" fill-rule="evenodd"><g transform="translate(-960.000000, -3050.000000)" fill="#000000"><g transform="translate(960.000000, 3050.000000)"><path d="M5.0178,2.0035 C3.3638,2.0035 2.0178,3.3495 2.0178,5.0035 L2.0178,50.0035 C2.0178,51.6575 3.3638,53.0035 5.0178,53.0035 L55.0178,53.0035 C56.6718,53.0035 58.0178,51.6575 58.0178,50.0035 L58.0178,5.0035 C58.0178,3.3495 56.6718,2.0035 55.0178,2.0035 L5.0178,2.0035 Z M55.0178,55.0035 L5.0178,55.0035 C2.2608,55.0035 0.0178,52.7605 0.0178,50.0035 L0.0178,5.0035 C0.0178,2.2465 2.2608,0.0035 5.0178,0.0035 L55.0178,0.0035 C57.7748,0.0035 60.0178,2.2465 60.0178,5.0035 L60.0178,50.0035 C60.0178,52.7605 57.7748,55.0035 55.0178,55.0035 L55.0178,55.0035 Z"/><path d="M8.0178,7.0035 C7.4658,7.0035 7.0178,7.4515 7.0178,8.0035 L7.0178,32.0035 C7.0178,32.5555 7.4658,33.0035 8.0178,33.0035 L52.0178,33.0035 C52.5698,33.0035 53.0178,32.5555 53.0178,32.0035 L53.0178,8.0035 C53.0178,7.4515 52.5698,7.0035 52.0178,7.0035 L8.0178,7.0035 Z M52.0178,35.0035 L8.0178,35.0035 C6.3638,35.0035 5.0178,33.6575 5.0178,32.0035 L5.0178,8.0035 C5.0178,6.3495 6.3638,5.0035 8.0178,5.0035 L52.0178,5.0035 C53.6718,5.0035 55.0178,6.3495 55.0178,8.0035 L55.0178,32.0035 C55.0178,33.6575 53.6718,35.0035 52.0178,35.0035 L52.0178,35.0035 Z"/><path d="M25.1184,33.0035 L34.9174,33.0035 C34.4514,30.7305 32.4314,29.0155 30.0174,29.0155 C27.6034,29.0155 25.5844,30.7305 25.1184,33.0035 M36.0174,35.0035 L24.0174,35.0035 C23.4654,35.0035 23.0174,34.5565 23.0174,34.0035 C23.0174,30.1495 26.1584,27.0155 30.0174,27.0155 C33.8774,27.0155 37.0174,30.1495 37.0174,34.0035 C37.0174,34.5565 36.5704,35.0035 36.0174,35.0035"/><path d="M10.0188,20.1343 C9.7258,20.1343 9.4348,20.0063 9.2378,19.7593 C8.8918,19.3283 8.9608,18.6993 9.3928,18.3543 C15.3058,13.6133 22.6298,11.0033 30.0178,11.0033 C37.6218,11.0033 44.7528,13.4993 50.6448,18.2233 C51.0758,18.5693 51.1448,19.1973 50.7988,19.6293 C50.4558,20.0603 49.8248,20.1293 49.3928,19.7833 C43.8608,15.3483 37.1618,13.0033 30.0178,13.0033 C23.0828,13.0033 16.2038,15.4573 10.6428,19.9143 C10.4588,20.0623 10.2378,20.1343 10.0188,20.1343"/><path d="M32.8635,29.7291 C32.7025,29.7291 32.5395,29.6901 32.3875,29.6081 C31.9025,29.3451 31.7215,28.7381 31.9855,28.2521 L42.1385,9.5271 C42.4015,9.0421 43.0095,8.8621 43.4945,9.1251 C43.9795,9.3871 44.1605,9.9951 43.8965,10.4801 L33.7435,29.2061 C33.5625,29.5401 33.2185,29.7291 32.8635,29.7291"/><path d="M47.0178,40.0035 C44.8118,40.0035 43.0178,41.7975 43.0178,44.0035 C43.0178,46.2095 44.8118,48.0035 47.0178,48.0035 C49.2238,48.0035 51.0178,46.2095 51.0178,44.0035 C51.0178,41.7975 49.2238,40.0035 47.0178,40.0035 M47.0178,50.0035 C43.7088,50.0035 41.0178,47.3125 41.0178,44.0035 C41.0178,40.6945 43.7088,38.0035 47.0178,38.0035 C50.3268,38.0035 53.0178,40.6945 53.0178,44.0035 C53.0178,47.3125 50.3268,50.0035 47.0178,50.0035"/><path d="M30.0178,40.0035 C27.8118,40.0035 26.0178,41.7975 26.0178,44.0035 C26.0178,46.2095 27.8118,48.0035 30.0178,48.0035 C32.2238,48.0035 34.0178,46.2095 34.0178,44.0035 C34.0178,41.7975 32.2238,40.0035 30.0178,40.0035 M30.0178,50.0035 C26.7088,50.0035 24.0178,47.3125 24.0178,44.0035 C24.0178,40.6945 26.7088,38.0035 30.0178,38.0035 C33.3268,38.0035 36.0178,40.6945 36.0178,44.0035 C36.0178,47.3125 33.3268,50.0035 30.0178,50.0035"/><path d="M12.0178,40.0035 C9.8118,40.0035 8.0178,41.7975 8.0178,44.0035 C8.0178,46.2095 9.8118,48.0035 12.0178,48.0035 C14.2238,48.0035 16.0178,46.2095 16.0178,44.0035 C16.0178,41.7975 14.2238,40.0035 12.0178,40.0035 M12.0178,50.0035 C8.7088,50.0035 6.0178,47.3125 6.0178,44.0035 C6.0178,40.6945 8.7088,38.0035 12.0178,38.0035 C15.3268,38.0035 18.0178,40.6945 18.0178,44.0035 C18.0178,47.3125 15.3268,50.0035 12.0178,50.0035"/><path d="M11.0178,47.8736 C11.6738,48.0476 12.3618,48.0476 13.0178,47.8736 L13.0178,46.0036 C13.0178,45.4516 12.5698,45.0036 12.0178,45.0036 C11.4658,45.0036 11.0178,45.4516 11.0178,46.0036 L11.0178,47.8736 Z M14.0178,48.5816 L14.0278,48.5816 L14.0178,48.5816 Z M12.0178,50.0036 C11.1938,50.0036 10.3858,49.8336 9.6188,49.4986 C9.2528,49.3396 9.0178,48.9786 9.0178,48.5816 L9.0178,46.0036 C9.0178,44.3496 10.3638,43.0036 12.0178,43.0036 C13.6718,43.0036 15.0178,44.3496 15.0178,46.0036 L15.0178,48.5816 C15.0178,48.9786 14.7828,49.3396 14.4168,49.4986 C13.6498,49.8336 12.8418,50.0036 12.0178,50.0036 L12.0178,50.0036 Z"/><path d="M26.1477,45.0035 L28.0177,45.0035 C28.5697,45.0035 29.0177,44.5555 29.0177,44.0035 C29.0177,43.4515 28.5697,43.0035 28.0177,43.0035 L26.1467,43.0035 C26.0607,43.3305 26.0177,43.6645 26.0177,44.0035 C26.0177,44.3415 26.0607,44.6755 26.1477,45.0035 M28.0177,47.0035 L25.4397,47.0035 C25.0427,47.0035 24.6817,46.7685 24.5227,46.4025 C24.1877,45.6355 24.0177,44.8275 24.0177,44.0035 C24.0177,43.1765 24.1877,42.3685 24.5237,41.6025 C24.6827,41.2385 25.0427,41.0035 25.4397,41.0035 L28.0177,41.0035 C29.6717,41.0035 31.0177,42.3495 31.0177,44.0035 C31.0177,45.6575 29.6717,47.0035 28.0177,47.0035"/><path d="M48.4319,44.4175 C48.1649,44.4175 47.9139,44.5215 47.7249,44.7105 C47.5359,44.8995 47.4319,45.1505 47.4319,45.4175 C47.4319,45.6855 47.5359,45.9355 47.7249,46.1235 L49.0479,47.4475 C49.3399,47.2765 49.6069,47.0705 49.8449,46.8325 C50.0849,46.5935 50.2909,46.3255 50.4619,46.0335 L49.1389,44.7105 C48.9499,44.5215 48.6999,44.4175 48.4319,44.4175 M48.8409,49.6545 C48.5799,49.6545 48.3259,49.5535 48.1339,49.3615 L46.3109,47.5385 C45.7439,46.9735 45.4319,46.2195 45.4319,45.4175 C45.4319,44.6165 45.7439,43.8625 46.3109,43.2965 C47.4449,42.1625 49.4219,42.1645 50.5539,43.2965 L52.3759,45.1195 C52.6579,45.4005 52.7449,45.8215 52.5999,46.1915 C52.2939,46.9725 51.8429,47.6635 51.2589,48.2465 C50.6779,48.8285 49.9869,49.2795 49.2059,49.5855 C49.0869,49.6325 48.9639,49.6545 48.8409,49.6545"/></g></g></g><text x="0" y="70" fill="#000000" font-size="5px" font-weight="bold" font-family="'Helvetica Neue', Helvetica, Arial-Unicode, Arial, Sans-serif">Created by Oliviu Stoian</text><text x="0" y="75" fill="#000000" font-size="5px" font-weight="bold" font-family="'Helvetica Neue', Helvetica, Arial-Unicode, Arial, Sans-serif">from the Noun Project</text></svg>