<svg xmlns="http://www.w3.org/2000/svg" viewBox="0 0 100 125" x="0px" y="0px"><title>Artboard 2 copy 4</title><path d="M89.74,2.77H10.26a4,4,0,0,0-4,4V93.21a4,4,0,0,0,4,4H89.74a4,4,0,0,0,4-4V6.79A4,4,0,0,0,89.74,2.77ZM10.24,86.64l0-64.1h79.5v64.1ZM89.76,6.79V20.54H10.26V6.77ZM10.24,93.21V88.64h79.5v4.59Z"/><path d="M49.69,27.2A27.31,27.31,0,1,0,77,54.51,27.34,27.34,0,0,0,49.69,27.2Zm0,4A23.29,23.29,0,0,1,71.77,62a10.32,10.32,0,0,1-5.32-4.16l-.82-1.16-.82,1.16c-2,2.88-4.65,4.47-7.38,4.47s-5.35-1.59-7.38-4.47l-.82-1.16-.82,1.16c-2,2.88-4.65,4.47-7.38,4.47s-5.35-1.59-7.38-4.47l-.82-1.16L32,57.79a10.82,10.82,0,0,1-4.52,3.87A23.3,23.3,0,0,1,49.69,31.2Zm0,46.61A23.34,23.34,0,0,1,28.21,63.54,12.12,12.12,0,0,0,32.86,60a10.72,10.72,0,0,0,8.2,4.25A10.72,10.72,0,0,0,49.25,60a10.72,10.72,0,0,0,8.2,4.25A10.72,10.72,0,0,0,65.64,60a11.73,11.73,0,0,0,5.42,3.8A23.34,23.34,0,0,1,49.69,77.81Z"/><path d="M74.46,18.2a4.3,4.3,0,1,0-4.3-4.3A4.31,4.31,0,0,0,74.46,18.2Zm0-6.61a2.28,2.28,0,0,1,.76.14l-1.63,1.63A1,1,0,1,0,75,14.78l1.63-1.63a2.27,2.27,0,0,1,.14.75,2.3,2.3,0,1,1-2.3-2.3Z"/><path d="M62.45,18.2a4.3,4.3,0,1,0-4.3-4.3A4.31,4.31,0,0,0,62.45,18.2Zm0-6.61a2.3,2.3,0,1,1-2.3,2.3A2.31,2.31,0,0,1,62.45,11.6Z"/><path d="M15,14.92h6.29a1,1,0,0,0,0-2H15a1,1,0,0,0,0,2Z"/><text x="0" y="115" fill="#000000" font-size="5px" font-weight="bold" font-family="'Helvetica Neue', Helvetica, Arial-Unicode, Arial, Sans-serif">Created by JOBY P VARGHESE</text><text x="0" y="120" fill="#000000" font-size="5px" font-weight="bold" font-family="'Helvetica Neue', Helvetica, Arial-Unicode, Arial, Sans-serif">from the Noun Project</text></svg>